<svg width="28" height="27" viewBox="0 0 28 27" fill="none" xmlns="http://www.w3.org/2000/svg">
<path d="M22.4355 17.1675L19.4722 16.8412C19.1238 16.8018 18.7706 16.839 18.4392 16.95C18.1078 17.0611 17.8068 17.2431 17.5589 17.4825L15.4122 19.5525C12.1003 17.9282 9.40828 15.3324 7.72387 12.1387L9.8822 10.0575C10.3839 9.57373 10.6289 8.89873 10.5472 8.21248L10.2089 5.37748C10.1427 4.82868 9.86959 4.3225 9.44148 3.95531C9.01336 3.58812 8.46016 3.38558 7.8872 3.38623H5.86887C4.55054 3.38623 3.45387 4.44373 3.53554 5.71498C4.15387 15.3225 12.1222 22.995 22.0739 23.5912C23.3922 23.67 24.4889 22.6125 24.4889 21.3412V19.395C24.5005 18.2587 23.6139 17.3025 22.4355 17.1675Z" fill="#EFEFEF"/>
</svg>
