<svg width="7" height="10" viewBox="0 0 7 10" fill="none" xmlns="http://www.w3.org/2000/svg">
<path d="M7 2.3469C7 2.42809 6.9684 2.50595 6.91216 2.56336C6.85592 2.62077 6.77963 2.65302 6.7001 2.65302H4.98514C4.99537 2.75473 5.00054 2.8569 5.00064 2.95914C4.99971 3.74366 4.69397 4.49578 4.15049 5.05052C3.60701 5.60526 2.87016 5.91733 2.10156 5.91828H1.07788L4.90067 9.46721C4.95953 9.52187 4.9947 9.59817 4.99845 9.6793C5.0022 9.76044 4.97422 9.83977 4.92066 9.89985C4.8671 9.95993 4.79236 9.99583 4.71287 9.99966C4.63338 10.0035 4.55566 9.97493 4.4968 9.92026L0.0981956 5.83869C0.0532578 5.797 0.021777 5.74237 0.00791673 5.68202C-0.00594357 5.62168 -0.00153017 5.55846 0.0205733 5.50073C0.0426768 5.443 0.0814286 5.39347 0.131704 5.35871C0.181979 5.32395 0.241408 5.30558 0.302131 5.30604H2.10156C2.71112 5.30523 3.29549 5.05771 3.72651 4.61776C4.15754 4.1778 4.40003 3.58133 4.40083 2.95914C4.40049 2.85677 4.39381 2.75453 4.38083 2.65302H0.302131C0.222591 2.65302 0.146309 2.62077 0.0900664 2.56336C0.0338234 2.50595 0.00222625 2.42809 0.00222625 2.3469C0.00222625 2.26572 0.0338234 2.18785 0.0900664 2.13045C0.146309 2.07304 0.222591 2.04079 0.302131 2.04079H4.21739C4.04045 1.6174 3.74564 1.25634 3.36952 1.00239C2.9934 0.748444 2.55252 0.612784 2.10156 0.612236H0.302131C0.222591 0.612236 0.146309 0.579984 0.0900664 0.522576C0.0338234 0.465168 0.00222625 0.387305 0.00222625 0.306118C0.00222625 0.22493 0.0338234 0.147068 0.0900664 0.0896598C0.146309 0.0322516 0.222591 0 0.302131 0H6.7001C6.77963 0 6.85592 0.0322516 6.91216 0.0896598C6.9684 0.147068 7 0.22493 7 0.306118C7 0.387305 6.9684 0.465168 6.91216 0.522576C6.85592 0.579984 6.77963 0.612236 6.7001 0.612236H3.8645C4.32847 0.975827 4.67439 1.47363 4.85718 2.04079H6.7001C6.77963 2.04079 6.85592 2.07304 6.91216 2.13045C6.9684 2.18785 7 2.26572 7 2.3469Z" fill="black"/>
</svg>
