<svg width="34" height="36" viewBox="0 0 34 36" fill="none" xmlns="http://www.w3.org/2000/svg">
<path d="M16.9987 15C20.1283 15 22.6654 12.3137 22.6654 9C22.6654 5.68629 20.1283 3 16.9987 3C13.8691 3 11.332 5.68629 11.332 9C11.332 12.3137 13.8691 15 16.9987 15Z" stroke="#051437" stroke-width="1.8"/>
<path d="M28.3284 27C28.3327 26.754 28.3327 26.5035 28.3327 26.25C28.3327 22.5225 23.2582 19.5 16.9993 19.5C10.7405 19.5 5.66602 22.5225 5.66602 26.25C5.66602 29.9775 5.66602 33 16.9993 33C20.1599 33 22.4394 32.7645 24.0827 32.3445" stroke="#051437" stroke-width="1.8" stroke-linecap="round"/>
</svg>
