<svg width="29" height="29" viewBox="0 0 29 29" fill="none" xmlns="http://www.w3.org/2000/svg">
<path d="M14.5 27.1875C7.50375 27.1875 1.8125 21.4963 1.8125 14.5C1.8125 7.50375 7.50375 1.8125 14.5 1.8125C21.4963 1.8125 27.1875 7.50375 27.1875 14.5C27.1875 21.4963 21.4963 27.1875 14.5 27.1875ZM14.5 3.625C8.50063 3.625 3.625 8.50063 3.625 14.5C3.625 20.4994 8.50063 25.375 14.5 25.375C20.4994 25.375 25.375 20.4994 25.375 14.5C25.375 8.50063 20.4994 3.625 14.5 3.625Z" fill="#08215E"/>
<path d="M14.5 8.15625C12.4881 8.15625 10.875 9.76937 10.875 11.7812H12.6875C12.6875 10.7844 13.5031 9.96875 14.5 9.96875C15.4969 9.96875 16.3125 10.7844 16.3125 11.7812C16.3125 13.5938 13.5938 13.3762 13.5938 16.3125H15.4062C15.4062 14.2825 18.125 14.0469 18.125 11.7812C18.125 9.76937 16.5119 8.15625 14.5 8.15625Z" fill="#08215E"/>
<path d="M14.5007 21.0612C15.1213 21.0612 15.6245 20.5581 15.6245 19.9375C15.6245 19.3168 15.1213 18.8137 14.5007 18.8137C13.8801 18.8137 13.377 19.3168 13.377 19.9375C13.377 20.5581 13.8801 21.0612 14.5007 21.0612Z" fill="#08215E"/>
<path d="M11.7812 12.6875C12.2818 12.6875 12.6875 12.2818 12.6875 11.7812C12.6875 11.2807 12.2818 10.875 11.7812 10.875C11.2807 10.875 10.875 11.2807 10.875 11.7812C10.875 12.2818 11.2807 12.6875 11.7812 12.6875Z" fill="#08215E"/>
<path d="M14.5 17.2188C15.0005 17.2188 15.4062 16.813 15.4062 16.3125C15.4062 15.812 15.0005 15.4062 14.5 15.4062C13.9995 15.4062 13.5938 15.812 13.5938 16.3125C13.5938 16.813 13.9995 17.2188 14.5 17.2188Z" fill="#08215E"/>
</svg>
