<svg width="24" height="24" viewBox="0 0 24 24" fill="none" xmlns="http://www.w3.org/2000/svg">
<path d="M23.0172 7.35002C22.4162 5.91571 21.5419 4.61203 20.4431 3.51163C19.3475 2.40931 18.0461 1.5329 16.6127 0.932167C15.1444 0.31377 13.5667 -0.00322058 11.9734 2.46678e-05H11.9199C10.2993 0.00806037 8.73237 0.329489 7.25648 0.961631C5.83542 1.56853 4.54622 2.44649 3.46095 3.54645C2.37273 4.64438 1.50846 5.9435 0.916308 7.37145C0.301617 8.85634 -0.00984994 10.4492 0.000237405 12.0563C0.00827311 13.9152 0.452915 15.7607 1.28327 17.4107V21.4821C1.28327 22.1625 1.83506 22.7143 2.51273 22.7143H6.5788C8.2365 23.5508 10.0658 23.9909 11.9225 24H11.9788C13.5806 24 15.1315 23.6893 16.594 23.0813C18.0201 22.4877 19.3166 21.6215 20.4109 20.5313C21.5145 19.4357 22.3824 18.1554 22.9904 16.7277C23.6199 15.2491 23.9413 13.6768 23.9493 12.0536C23.9547 10.4223 23.6386 8.8393 23.0172 7.35002ZM6.62702 13.2857C5.91987 13.2857 5.34398 12.7098 5.34398 12C5.34398 11.2902 5.91987 10.7143 6.62702 10.7143C7.33416 10.7143 7.91005 11.2902 7.91005 12C7.91005 12.7098 7.33684 13.2857 6.62702 13.2857ZM11.9734 13.2857C11.2663 13.2857 10.6904 12.7098 10.6904 12C10.6904 11.2902 11.2663 10.7143 11.9734 10.7143C12.6806 10.7143 13.2565 11.2902 13.2565 12C13.2565 12.7098 12.6806 13.2857 11.9734 13.2857ZM17.3199 13.2857C16.6127 13.2857 16.0368 12.7098 16.0368 12C16.0368 11.2902 16.6127 10.7143 17.3199 10.7143C18.027 10.7143 18.6029 11.2902 18.6029 12C18.6029 12.7098 18.027 13.2857 17.3199 13.2857Z" fill="white"/>
</svg>
