<svg width="29" height="29" viewBox="0 0 29 29" fill="none" xmlns="http://www.w3.org/2000/svg">
<path d="M19.0313 17.5208C18.791 17.5208 18.5605 17.6163 18.3905 17.7863C18.2206 17.9562 18.1251 18.1867 18.1251 18.4271C18.1251 18.6674 18.2206 18.8979 18.3905 19.0679C18.5605 19.2378 18.791 19.3333 19.0313 19.3333H22.0522C22.2925 19.3333 22.523 19.2378 22.693 19.0679C22.8629 18.8979 22.9584 18.6674 22.9584 18.4271C22.9584 18.1867 22.8629 17.9562 22.693 17.7863C22.523 17.6163 22.2925 17.5208 22.0522 17.5208H19.0313ZM2.41675 9.96874C2.41675 8.92721 2.83049 7.92834 3.56696 7.19187C4.30343 6.4554 5.3023 6.04166 6.34383 6.04166H22.6563C23.172 6.04166 23.6827 6.14323 24.1592 6.34059C24.6356 6.53794 25.0685 6.82721 25.4332 7.19187C25.7979 7.55654 26.0871 7.98945 26.2845 8.46591C26.4818 8.94237 26.5834 9.45303 26.5834 9.96874V19.0312C26.5834 19.547 26.4818 20.0576 26.2845 20.5341C26.0871 21.0105 25.7979 21.4434 25.4332 21.8081C25.0685 22.1728 24.6356 22.462 24.1592 22.6594C23.6827 22.8567 23.172 22.9583 22.6563 22.9583H6.34383C5.3023 22.9583 4.30343 22.5446 3.56696 21.8081C2.83049 21.0716 2.41675 20.0728 2.41675 19.0312V9.96874ZM24.7709 11.4792V9.96874C24.7709 9.40792 24.5481 8.87006 24.1516 8.4735C23.755 8.07694 23.2172 7.85416 22.6563 7.85416H6.34383C5.78301 7.85416 5.24516 8.07694 4.8486 8.4735C4.45203 8.87006 4.22925 9.40792 4.22925 9.96874V11.4792H24.7709ZM4.22925 13.2917V19.0312C4.22925 20.1985 5.17658 21.1458 6.34383 21.1458H22.6563C23.2172 21.1458 23.755 20.923 24.1516 20.5265C24.5481 20.1299 24.7709 19.5921 24.7709 19.0312V13.2917H4.22925Z" fill="black"/>
</svg>
