<svg width="26" height="27" viewBox="0 0 26 27" fill="none" xmlns="http://www.w3.org/2000/svg">
<path d="M25.2311 26.0465L22.7848 23.5187M12.3882 24.7826C13.9141 24.7826 15.4251 24.4721 16.8349 23.8686C18.2447 23.2652 19.5256 22.3808 20.6046 21.2658C21.6836 20.1509 22.5395 18.8272 23.1235 17.3704C23.7074 15.9137 24.008 14.3523 24.008 12.7755C24.008 11.1987 23.7074 9.63737 23.1235 8.1806C22.5395 6.72383 21.6836 5.40018 20.6046 4.28521C19.5256 3.17025 18.2447 2.28581 16.8349 1.6824C15.4251 1.07899 13.9141 0.768414 12.3882 0.768414C9.30644 0.768414 6.3509 2.03344 4.17177 4.28521C1.99264 6.53698 0.768414 9.59104 0.768414 12.7755C0.768414 15.96 1.99264 19.0141 4.17177 21.2658C6.3509 23.5176 9.30644 24.7826 12.3882 24.7826Z" stroke="white" stroke-width="1.5" stroke-linecap="round" stroke-linejoin="round"/>
</svg>
