<svg width="30" height="23" viewBox="0 0 30 23" fill="none" xmlns="http://www.w3.org/2000/svg">
<path d="M20.3115 14.3778C20.0628 14.3778 19.8243 14.4766 19.6485 14.6525C19.4726 14.8283 19.3738 15.0668 19.3738 15.3155C19.3738 15.5642 19.4726 15.8027 19.6485 15.9786C19.8243 16.1544 20.0628 16.2532 20.3115 16.2532H24.6874C24.9361 16.2532 25.1746 16.1544 25.3504 15.9786C25.5263 15.8027 25.6251 15.5642 25.6251 15.3155C25.6251 15.0668 25.5263 14.8283 25.3504 14.6525C25.1746 14.4766 24.9361 14.3778 24.6874 14.3778H20.3115ZM0 4.68842C0 3.44498 0.493958 2.25246 1.37321 1.37321C2.25246 0.493958 3.44498 0 4.68843 0H25.3125C26.5559 0 27.7485 0.493958 28.6277 1.37321C29.507 2.25246 30.0009 3.44498 30.0009 4.68842V17.816C30.0009 19.0595 29.507 20.252 28.6277 21.1312C27.7485 22.0105 26.5559 22.5044 25.3125 22.5044H4.68968C3.44623 22.5044 2.25371 22.0105 1.37446 21.1312C0.495208 20.252 0.00125045 19.0595 0.00125045 17.816V4.68842H0ZM4.68843 1.87537C3.94236 1.87537 3.22684 2.17174 2.69929 2.69929C2.17174 3.22684 1.87537 3.94236 1.87537 4.68842V5.62611H28.1255V4.68842C28.1255 3.94236 27.8292 3.22684 27.3016 2.69929C26.7741 2.17174 26.0586 1.87537 25.3125 1.87537H4.68843ZM1.87537 17.816C1.87537 18.5621 2.17174 19.2776 2.69929 19.8051C3.22684 20.3327 3.94236 20.6291 4.68843 20.6291H25.3125C26.0586 20.6291 26.7741 20.3327 27.3016 19.8051C27.8292 19.2776 28.1255 18.5621 28.1255 17.816V7.50148H1.87662V17.816H1.87537Z" fill="white"/>
</svg>
