<svg width="34" height="34" viewBox="0 0 34 34" fill="none" xmlns="http://www.w3.org/2000/svg">
<path d="M19.0826 10.6675C19.2819 10.8664 19.5519 10.9782 19.8335 10.9782C20.115 10.9782 20.3851 10.8664 20.5843 10.6675L21.6043 9.64746V24.0833C21.6043 24.3651 21.7162 24.6353 21.9155 24.8346C22.1148 25.0339 22.385 25.1458 22.6668 25.1458C22.9486 25.1458 23.2188 25.0339 23.4181 24.8346C23.6174 24.6353 23.7293 24.3651 23.7293 24.0833V9.64746L24.7493 10.6675C24.8466 10.7719 24.9639 10.8556 25.0942 10.9137C25.2245 10.9717 25.3652 11.0029 25.5079 11.0055C25.6506 11.008 25.7923 10.9817 25.9246 10.9283C26.0569 10.8749 26.177 10.7953 26.2779 10.6944C26.3788 10.5935 26.4584 10.4734 26.5118 10.3411C26.5652 10.2088 26.5915 10.067 26.589 9.92439C26.5865 9.78172 26.5552 9.64103 26.4972 9.5107C26.4391 9.38037 26.3554 9.26306 26.251 9.16579L23.4176 6.33246C23.2184 6.13349 22.9484 6.02173 22.6668 6.02173C22.3852 6.02173 22.1152 6.13349 21.916 6.33246L19.0826 9.16579C18.8837 9.36501 18.7719 9.63506 18.7719 9.91663C18.7719 10.1982 18.8837 10.4682 19.0826 10.6675ZM12.396 24.3525L13.416 23.3325C13.5132 23.2281 13.6305 23.1443 13.7609 23.0863C13.8912 23.0282 14.0319 22.997 14.1746 22.9945C14.3172 22.9919 14.4589 23.0182 14.5912 23.0716C14.7235 23.1251 14.8437 23.2046 14.9446 23.3055C15.0455 23.4064 15.125 23.5266 15.1785 23.6589C15.2319 23.7912 15.2582 23.9329 15.2556 24.0755C15.2531 24.2182 15.2219 24.3589 15.1638 24.4892C15.1058 24.6196 15.022 24.7369 14.9176 24.8341L12.0843 27.6675C11.8851 27.8664 11.615 27.9782 11.3335 27.9782C11.0519 27.9782 10.7819 27.8664 10.5826 27.6675L7.7493 24.8341C7.64491 24.7369 7.56118 24.6196 7.50311 24.4892C7.44504 24.3589 7.41382 24.2182 7.4113 24.0755C7.40878 23.9329 7.43502 23.7912 7.48846 23.6589C7.5419 23.5266 7.62144 23.4064 7.72233 23.3055C7.82322 23.2046 7.94341 23.1251 8.07571 23.0716C8.20801 23.0182 8.34971 22.9919 8.49238 22.9945C8.63504 22.997 8.77573 23.0282 8.90606 23.0863C9.0364 23.1443 9.1537 23.2281 9.25097 23.3325L10.271 24.3525V9.91663C10.271 9.63483 10.3829 9.36458 10.5822 9.16533C10.7814 8.96607 11.0517 8.85413 11.3335 8.85413C11.6153 8.85413 11.8855 8.96607 12.0848 9.16533C12.284 9.36458 12.396 9.63483 12.396 9.91663V24.3525Z" fill="white"/>
</svg>
