<svg width="18" height="18" viewBox="0 0 18 18" fill="none" xmlns="http://www.w3.org/2000/svg">
<path d="M13.6115 4.38834C13.528 4.3047 13.4287 4.23836 13.3195 4.19309C13.2103 4.14783 13.0932 4.12453 12.9749 4.12453C12.8567 4.12453 12.7396 4.14783 12.6304 4.19309C12.5212 4.23836 12.4219 4.3047 12.3383 4.38834L8.99994 7.72794L5.66154 4.38894C5.4927 4.2201 5.26371 4.12525 5.02494 4.12525C4.78617 4.12525 4.55718 4.2201 4.38834 4.38894C4.2195 4.55777 4.12465 4.78676 4.12465 5.02554C4.12465 5.26431 4.2195 5.4933 4.38834 5.66214L7.72794 8.99994L4.38894 12.3383C4.30534 12.4219 4.23902 12.5212 4.19378 12.6304C4.14854 12.7396 4.12525 12.8567 4.12525 12.9749C4.12525 13.2137 4.2201 13.4427 4.38894 13.6115C4.55778 13.7804 4.78677 13.8752 5.02554 13.8752C5.26431 13.8752 5.4933 13.7804 5.66214 13.6115L8.99994 10.2719L12.3383 13.6109C12.5072 13.7798 12.7362 13.8746 12.9749 13.8746C13.2137 13.8746 13.4427 13.7798 13.6115 13.6109C13.7804 13.4421 13.8752 13.2131 13.8752 12.9743C13.8752 12.7356 13.7804 12.5066 13.6115 12.3377L10.2719 8.99994L13.6109 5.66154C13.6946 5.57796 13.7609 5.47871 13.8062 5.36948C13.8514 5.26025 13.8747 5.14317 13.8747 5.02494C13.8747 4.9067 13.8514 4.78962 13.8062 4.68039C13.7609 4.57116 13.6946 4.47192 13.6109 4.38834H13.6115Z" fill="#F53154"/>
<path d="M3 0C2.60603 0 2.21593 0.0775973 1.85195 0.228361C1.48797 0.379126 1.15726 0.600104 0.87868 0.87868C0.316071 1.44129 0 2.20435 0 3V15C0 15.7956 0.316071 16.5587 0.87868 17.1213C1.15726 17.3999 1.48797 17.6209 1.85195 17.7716C2.21593 17.9224 2.60603 18 3 18H15C15.7956 18 16.5587 17.6839 17.1213 17.1213C17.6839 16.5587 18 15.7956 18 15V3C18 2.60603 17.9224 2.21593 17.7716 1.85195C17.6209 1.48797 17.3999 1.15726 17.1213 0.87868C16.8427 0.600104 16.512 0.379126 16.1481 0.228361C15.7841 0.0775973 15.394 0 15 0H3ZM1.2 3C1.2 2.52261 1.38964 2.06477 1.72721 1.72721C2.06477 1.38964 2.52261 1.2 3 1.2H15C15.4774 1.2 15.9352 1.38964 16.2728 1.72721C16.6104 2.06477 16.8 2.52261 16.8 3V15C16.8 15.4774 16.6104 15.9352 16.2728 16.2728C15.9352 16.6104 15.4774 16.8 15 16.8H3C2.52261 16.8 2.06477 16.6104 1.72721 16.2728C1.38964 15.9352 1.2 15.4774 1.2 15V3Z" fill="#F53154"/>
</svg>
