<svg width="34" height="36" viewBox="0 0 34 36" fill="none" xmlns="http://www.w3.org/2000/svg">
<path d="M17.0007 15C20.1303 15 22.6673 12.3137 22.6673 9C22.6673 5.68629 20.1303 3 17.0007 3C13.871 3 11.334 5.68629 11.334 9C11.334 12.3137 13.871 15 17.0007 15Z" stroke="white" stroke-width="1.8"/>
<path d="M28.3294 27C28.3337 26.754 28.3337 26.5035 28.3337 26.25C28.3337 22.5225 23.2592 19.5 17.0003 19.5C10.7415 19.5 5.66699 22.5225 5.66699 26.25C5.66699 29.9775 5.66699 33 17.0003 33C20.1609 33 22.4403 32.7645 24.0837 32.3445" stroke="white" stroke-width="1.8" stroke-linecap="round"/>
</svg>
