<svg width="34" height="34" viewBox="0 0 34 34" fill="none" xmlns="http://www.w3.org/2000/svg">
<path d="M2.42871 17L17.0001 2.42859L31.5716 17" stroke="black" stroke-width="1.3" stroke-linecap="round" stroke-linejoin="round"/>
<path d="M5.66699 13.762V26.7143C5.66699 27.1437 5.83757 27.5556 6.1412 27.8592C6.44483 28.1628 6.85664 28.3334 7.28604 28.3334H12.1432C12.5726 28.3334 12.9844 28.1628 13.288 27.8592C13.5917 27.5556 13.7622 27.1437 13.7622 26.7143V20.2382C13.7622 19.8088 13.9328 19.3969 14.2364 19.0933C14.5401 18.7897 14.9519 18.6191 15.3813 18.6191H18.6194C19.0488 18.6191 19.4606 18.7897 19.7642 19.0933C20.0678 19.3969 20.2384 19.8088 20.2384 20.2382V26.7143C20.2384 27.1437 20.409 27.5556 20.7126 27.8592C21.0163 28.1628 21.4281 28.3334 21.8575 28.3334H26.7146C27.144 28.3334 27.5558 28.1628 27.8595 27.8592C28.1631 27.5556 28.3337 27.1437 28.3337 26.7143V13.762" stroke="black" stroke-width="1.3" stroke-linecap="round" stroke-linejoin="round"/>
</svg>
