<svg width="24" height="24" viewBox="0 0 24 24" fill="none" xmlns="http://www.w3.org/2000/svg">
<path d="M14.7706 12.4C14.9206 12.47 15.0906 12.5 15.2506 12.5C15.5806 12.5 15.8906 12.37 16.1306 12.14L18.3106 10H19.2506C20.7706 10 22.0006 8.77 22.0006 7.25V4.75C22.0006 3.23 20.7706 2 19.2506 2H14.7506C13.2306 2 12.0006 3.23 12.0006 4.75V7.25C12.0006 8.51 12.8506 9.57 14.0006 9.9V11.25C14.0006 11.75 14.3106 12.2 14.7706 12.4ZM13.5006 4.75C13.5006 4.06 14.0606 3.5 14.7506 3.5H19.2506C19.9406 3.5 20.5006 4.06 20.5006 4.75V7.25C20.5006 7.94 19.9406 8.5 19.2506 8.5H17.6906L15.5006 10.65V8.5H14.7506C14.0606 8.5 13.5006 7.94 13.5006 7.25V4.75ZM8.00059 13.5C6.07059 13.5 4.50059 11.93 4.50059 10C4.50059 8.07 6.07059 6.5 8.00059 6.5C9.93059 6.5 11.5006 8.07 11.5006 10C11.5006 11.93 9.93059 13.5 8.00059 13.5ZM8.00059 8C6.90059 8 6.00059 8.9 6.00059 10C6.00059 11.1 6.90059 12 8.00059 12C9.10059 12 10.0006 11.1 10.0006 10C10.0006 8.9 9.10059 8 8.00059 8ZM8.00059 22C5.94059 22 4.36059 21.44 3.30059 20.33C1.96459 18.926 1.99759 17.156 2.00059 16.973V16.96C2.00059 15.89 2.90059 15 4.00059 15H12.0006C13.1006 15 14.0006 15.9 14.0006 17L14.0016 17.006C14.0046 17.133 14.0466 18.916 12.7016 20.33C11.6406 21.44 10.0606 22 8.00059 22ZM4.00059 16.5C3.72059 16.5 3.50059 16.72 3.50059 17V17.005C3.50059 17.1 3.48359 18.353 4.40059 19.31C5.16059 20.1 6.37059 20.5 8.00059 20.5C9.63059 20.5 10.8506 20.09 11.6106 19.29C12.5236 18.338 12.5026 17.098 12.5006 17.032V17.03C12.5006 16.72 12.2706 16.49 12.0006 16.49H4.00059V16.5Z" fill="black"/>
</svg>
