<svg width="25" height="29" viewBox="0 0 25 29" fill="none" xmlns="http://www.w3.org/2000/svg">
<path fill-rule="evenodd" clip-rule="evenodd" d="M11.525 0.181475C12.0731 -0.0298051 12.6719 -0.0573493 13.2361 0.102772L13.475 0.181475L23.1972 3.93779C23.6902 4.12824 24.1205 4.4591 24.4379 4.89182C24.7554 5.32455 24.9469 5.84131 24.9903 6.3819L25 6.61801V14.2923C24.9999 16.6111 24.3923 18.8869 23.2411 20.8794C22.09 22.8719 20.438 24.5072 18.4597 25.6128L18.0903 25.8117L13.4319 28.2114C13.1755 28.3434 12.8953 28.4194 12.609 28.4346C12.3227 28.4499 12.0364 28.4041 11.7681 28.3002L11.5681 28.2114L6.90972 25.8117C4.89668 24.7746 3.19274 23.1969 1.97778 21.2449C0.762823 19.2929 0.0819174 17.0392 0.0069446 14.7216L0 14.2923V6.61801C8.07646e-06 6.07585 0.149481 5.54485 0.431019 5.08682C0.712557 4.62879 1.11458 4.26257 1.59028 4.0308L1.80278 3.93779L11.525 0.181475ZM17.2681 9.38838L10.8819 15.968L8.42639 13.438C8.16578 13.1697 7.81238 13.0191 7.44395 13.0192C7.07552 13.0193 6.72223 13.1702 6.46181 13.4388C6.20138 13.7073 6.05514 14.0714 6.05527 14.451C6.0554 14.8306 6.20189 15.1946 6.4625 15.4629L9.80139 18.9029C9.94327 19.0492 10.1117 19.1652 10.2971 19.2443C10.4825 19.3235 10.6813 19.3642 10.8819 19.3642C11.0826 19.3642 11.2814 19.3235 11.4668 19.2443C11.6522 19.1652 11.8206 19.0492 11.9625 18.9029L19.2319 11.4118C19.3646 11.2798 19.4704 11.1219 19.5432 10.9473C19.616 10.7727 19.6543 10.5849 19.6559 10.3949C19.6575 10.2049 19.6224 10.0165 19.5525 9.84063C19.4827 9.66477 19.3796 9.505 19.2492 9.37064C19.1188 9.23628 18.9637 9.13003 18.793 9.05808C18.6223 8.98613 18.4394 8.94992 18.255 8.95157C18.0706 8.95322 17.8883 8.9927 17.7189 9.06769C17.5494 9.14269 17.3962 9.2517 17.2681 9.38838Z" fill="#2C9F03"/>
</svg>
