<svg width="29" height="29" viewBox="0 0 29 29" fill="none" xmlns="http://www.w3.org/2000/svg">
<path d="M14.5 16.9167C16.5058 16.9167 18.1129 15.2975 18.1129 13.2917L18.125 6.04169C18.125 4.03585 16.5058 2.41669 14.5 2.41669C12.4941 2.41669 10.875 4.03585 10.875 6.04169V13.2917C10.875 15.2975 12.4941 16.9167 14.5 16.9167ZM20.9041 13.2917C20.9041 16.9167 17.835 19.4542 14.5 19.4542C11.165 19.4542 8.09579 16.9167 8.09579 13.2917H6.04163C6.04163 17.4121 9.32829 20.8196 13.2916 21.4117V25.375H15.7083V21.4117C19.6716 20.8317 22.9583 17.4242 22.9583 13.2917H20.9041Z" fill="black"/>
</svg>
