<svg width="53" height="21" viewBox="0 0 53 21" fill="none" xmlns="http://www.w3.org/2000/svg">
<path d="M15.5827 7.1283C15.5832 7.03508 15.5654 6.94267 15.5301 6.85637C15.4949 6.77007 15.4429 6.69157 15.3773 6.62539L12.3739 3.62205C12.3078 3.55641 12.2293 3.50447 12.143 3.46922C12.0567 3.43397 11.9642 3.4161 11.871 3.41664C11.7778 3.4161 11.6854 3.43397 11.5991 3.46922C11.5128 3.50447 11.4343 3.55641 11.3681 3.62205L9.36353 5.62664L1.62144 13.3687C1.55579 13.4349 1.50386 13.5134 1.46861 13.5997C1.43336 13.686 1.41549 13.7784 1.41603 13.8716V16.875C1.41603 17.0628 1.49066 17.243 1.62349 17.3758C1.75633 17.5087 1.9365 17.5833 2.12436 17.5833H5.12769C5.22681 17.5887 5.32595 17.5732 5.41869 17.5378C5.51143 17.5024 5.5957 17.4479 5.66603 17.3779L13.3656 9.6358L15.3773 7.66664C15.4419 7.59799 15.4946 7.51897 15.5331 7.43289C15.5399 7.37643 15.5399 7.31935 15.5331 7.26289C15.5364 7.22992 15.5364 7.19669 15.5331 7.16372L15.5827 7.1283ZM4.83728 16.1666H2.83269V14.1621L9.86644 7.1283L11.871 9.13289L4.83728 16.1666ZM12.8698 8.13414L10.8652 6.12955L11.871 5.1308L13.8685 7.1283L12.8698 8.13414Z" fill="black"/>
<path d="M37.25 16.625C37.25 17.5875 38.0375 18.375 39 18.375H46C46.9625 18.375 47.75 17.5875 47.75 16.625V7.875C47.75 6.9125 46.9625 6.125 46 6.125H39C38.0375 6.125 37.25 6.9125 37.25 7.875V16.625ZM39.875 7.875H45.125C45.6062 7.875 46 8.26875 46 8.75V15.75C46 16.2312 45.6062 16.625 45.125 16.625H39.875C39.3937 16.625 39 16.2312 39 15.75V8.75C39 8.26875 39.3937 7.875 39.875 7.875ZM45.5625 3.5L44.9412 2.87875C44.7837 2.72125 44.5563 2.625 44.3288 2.625H40.6712C40.4437 2.625 40.2162 2.72125 40.0588 2.87875L39.4375 3.5H37.25C36.7687 3.5 36.375 3.89375 36.375 4.375C36.375 4.85625 36.7687 5.25 37.25 5.25H47.75C48.2312 5.25 48.625 4.85625 48.625 4.375C48.625 3.89375 48.2312 3.5 47.75 3.5H45.5625Z" fill="#FF7777"/>
</svg>
