<svg width="28" height="26" viewBox="0 0 28 26" fill="none" xmlns="http://www.w3.org/2000/svg">
<path d="M6.41634 9.75004C6.88047 9.75004 7.32559 9.57884 7.65378 9.27409C7.98197 8.96934 8.16634 8.55602 8.16634 8.12504C8.16634 7.69406 7.98197 7.28074 7.65378 6.97599C7.32559 6.67125 6.88047 6.50004 6.41634 6.50004C5.95221 6.50004 5.50709 6.67125 5.1789 6.97599C4.85072 7.28074 4.66634 7.69406 4.66634 8.12504C4.66634 8.55602 4.85072 8.96934 5.1789 9.27409C5.50709 9.57884 5.95221 9.75004 6.41634 9.75004ZM20.3113 12.545C20.7313 12.935 20.9997 13.4767 20.9997 14.0834C20.9997 14.6792 20.743 15.2209 20.3113 15.6109L14.478 21.0275C14.2616 21.2295 14.0044 21.3898 13.7211 21.4991C13.4378 21.6085 13.134 21.6648 12.8272 21.6648C12.5204 21.6648 12.2166 21.6085 11.9333 21.4991C11.65 21.3898 11.3927 21.2295 11.1763 21.0275L3.02134 13.455C2.58967 13.0542 2.33301 12.5125 2.33301 11.9167V6.50004C2.33301 5.29754 3.37134 4.33337 4.66634 4.33337H10.4997C11.1413 4.33337 11.7247 4.57171 12.1447 4.96171L20.3113 12.545ZM15.7963 6.18587L16.963 5.10254L24.978 12.545C25.4097 12.935 25.6663 13.4875 25.6663 14.0834C25.6663 14.6792 25.4097 15.2209 24.9897 15.6109L18.713 21.4392L17.5463 20.3559L24.208 14.0834L15.7963 6.18587Z" fill="#2C980E"/>
</svg>
