<svg width="27" height="31" viewBox="0 0 27 31" fill="none" xmlns="http://www.w3.org/2000/svg">
<path d="M26.0809 30.2403L23.5488 27.2922M12.7872 28.7662C14.3667 28.7662 15.9307 28.404 17.39 27.7003C18.8493 26.9966 20.1752 25.9651 21.292 24.6648C22.4089 23.3644 23.2948 21.8207 23.8993 20.1218C24.5037 18.4228 24.8148 16.6019 24.8148 14.7629C24.8148 12.924 24.5037 11.1031 23.8993 9.40411C23.2948 7.70515 22.4089 6.16144 21.292 4.86111C20.1752 3.56078 18.8493 2.52931 17.39 1.82558C15.9307 1.12184 14.3667 0.759638 12.7872 0.759638C9.59732 0.759638 6.53805 2.23498 4.28244 4.86111C2.02683 7.48724 0.759638 11.049 0.759638 14.7629C0.759638 18.4768 2.02683 22.0386 4.28244 24.6648C6.53805 27.2909 9.59732 28.7662 12.7872 28.7662Z" stroke="white" stroke-width="1.5" stroke-linecap="round" stroke-linejoin="round"/>
</svg>
