<svg width="32" height="32" viewBox="0 0 32 32" fill="none" xmlns="http://www.w3.org/2000/svg">
<path d="M15.9993 23.3333C19.106 23.3333 21.7327 21.3866 22.8127 18.6666H9.18602C10.2527 21.3866 12.8927 23.3333 15.9993 23.3333ZM11.3327 14.6666C11.8631 14.6666 12.3718 14.4559 12.7469 14.0808C13.122 13.7058 13.3327 13.1971 13.3327 12.6666C13.3327 12.1362 13.122 11.6275 12.7469 11.2524C12.3718 10.8773 11.8631 10.6666 11.3327 10.6666C10.8022 10.6666 10.2935 10.8773 9.91847 11.2524C9.5434 11.6275 9.33268 12.1362 9.33268 12.6666C9.33268 13.1971 9.5434 13.7058 9.91847 14.0808C10.2935 14.4559 10.8022 14.6666 11.3327 14.6666ZM20.666 14.6666C21.1964 14.6666 21.7052 14.4559 22.0802 14.0808C22.4553 13.7058 22.666 13.1971 22.666 12.6666C22.666 12.1362 22.4553 11.6275 22.0802 11.2524C21.7052 10.8773 21.1964 10.6666 20.666 10.6666C20.1356 10.6666 19.6269 10.8773 19.2518 11.2524C18.8767 11.6275 18.666 12.1362 18.666 12.6666C18.666 13.1971 18.8767 13.7058 19.2518 14.0808C19.6269 14.4559 20.1356 14.6666 20.666 14.6666ZM15.9993 26.6666C13.1704 26.6666 10.4573 25.5428 8.45688 23.5424C6.45649 21.542 5.33268 18.8289 5.33268 16C5.33268 13.171 6.45649 10.4579 8.45688 8.45749C10.4573 6.4571 13.1704 5.33329 15.9993 5.33329C18.8283 5.33329 21.5414 6.4571 23.5418 8.45749C25.5422 10.4579 26.666 13.171 26.666 16C26.666 18.8289 25.5422 21.542 23.5418 23.5424C21.5414 25.5428 18.8283 26.6666 15.9993 26.6666ZM15.9993 2.66663C8.62602 2.66663 2.66602 8.66663 2.66602 16C2.66602 19.5362 4.07077 22.9276 6.57126 25.428C7.80937 26.6662 9.27923 27.6483 10.8969 28.3184C12.5146 28.9884 14.2484 29.3333 15.9993 29.3333C19.5356 29.3333 22.927 27.9285 25.4274 25.428C27.9279 22.9276 29.3327 19.5362 29.3327 16C29.3327 14.249 28.9878 12.5152 28.3177 10.8975C27.6477 9.27984 26.6656 7.80998 25.4274 6.57187C24.1893 5.33375 22.7195 4.35163 21.1018 3.68157C19.4841 3.0115 17.7503 2.66663 15.9993 2.66663Z" fill="#8A8A8A"/>
</svg>
