<svg width="24" height="24" viewBox="0 0 24 24" fill="none" xmlns="http://www.w3.org/2000/svg">
<path d="M9.00002 16.17L5.53002 12.7C5.34305 12.513 5.08945 12.408 4.82502 12.408C4.5606 12.408 4.307 12.513 4.12002 12.7C3.93305 12.887 3.828 13.1406 3.828 13.405C3.828 13.5359 3.85379 13.6656 3.9039 13.7866C3.954 13.9075 4.02744 14.0174 4.12002 14.11L8.30002 18.29C8.69002 18.68 9.32002 18.68 9.71002 18.29L20.29 7.71002C20.477 7.52304 20.582 7.26944 20.582 7.00502C20.582 6.74059 20.477 6.48699 20.29 6.30002C20.103 6.11304 19.8494 6.008 19.585 6.008C19.3206 6.008 19.067 6.11304 18.88 6.30002L9.00002 16.17Z" fill="white"/>
</svg>
