<svg width="14" height="15" viewBox="0 0 14 15" fill="none" xmlns="http://www.w3.org/2000/svg">
<path d="M12.8334 4.52501C12.8339 4.44276 12.8192 4.36122 12.7901 4.28507C12.7611 4.20892 12.7183 4.13966 12.6643 4.08126L10.1909 1.43126C10.1364 1.37333 10.0718 1.32751 10.0007 1.2964C9.92963 1.2653 9.85353 1.24953 9.77676 1.25001C9.69999 1.24953 9.62389 1.2653 9.55281 1.2964C9.48174 1.32751 9.4171 1.37333 9.36259 1.43126L7.71176 3.20001L1.33592 10.0313C1.28186 10.0897 1.23909 10.1589 1.21006 10.2351C1.18103 10.3112 1.16631 10.3928 1.16676 10.475V13.125C1.16676 13.2908 1.22822 13.4497 1.33761 13.567C1.44701 13.6842 1.59538 13.75 1.75009 13.75H4.22342C4.30505 13.7548 4.3867 13.7411 4.46307 13.7099C4.53944 13.6786 4.60884 13.6306 4.66676 13.5688L11.0076 6.73751L12.6643 5.00001C12.7175 4.93944 12.7609 4.86972 12.7926 4.79376C12.7982 4.74394 12.7982 4.69358 12.7926 4.64376C12.7953 4.61467 12.7953 4.58535 12.7926 4.55626L12.8334 4.52501ZM3.98426 12.5H2.33342V10.7313L8.12593 4.52501L9.77676 6.29376L3.98426 12.5ZM10.5993 5.41251L8.94843 3.64376L9.77676 2.76251L11.4218 4.52501L10.5993 5.41251Z" fill="black"/>
</svg>
