<svg width="21" height="20" viewBox="0 0 21 20" fill="none" xmlns="http://www.w3.org/2000/svg">
<g clip-path="url(#clip0_371_4953)">
<path d="M1.3125 1.25V18.75H10.5V20H0V0H11.4331L17.0625 5.36133V12.5H15.75V6.25H10.5V1.25H1.3125ZM11.8125 2.13867V5H14.8169L11.8125 2.13867ZM2.625 5H9.1875V6.25H2.625V5ZM14.4375 7.5V8.75H2.625V7.5H14.4375ZM2.625 11.25V10H14.4375V11.25H2.625ZM2.625 13.75V12.5H10.5V13.75H2.625ZM2.625 16.25V15H10.5V16.25H2.625ZM14.4375 13.75H21V15H14.4375V13.75ZM14.4375 17.5V16.25H21V17.5H14.4375ZM14.4375 20V18.75H21V20H14.4375ZM11.8125 15V13.75H13.125V15H11.8125ZM11.8125 17.5V16.25H13.125V17.5H11.8125ZM11.8125 20V18.75H13.125V20H11.8125Z" fill="black"/>
</g>
<defs>
<clipPath id="clip0_371_4953">
<rect width="21" height="20" fill="white"/>
</clipPath>
</defs>
</svg>
