<svg width="29" height="28" viewBox="0 0 29 28" fill="none" xmlns="http://www.w3.org/2000/svg">
<path d="M26.5827 25.6666L24.166 23.3333M13.8952 24.4999C15.4026 24.4999 16.8954 24.2132 18.2881 23.6563C19.6808 23.0993 20.9462 22.2829 22.0122 21.2537C23.0781 20.2245 23.9237 19.0027 24.5005 17.658C25.0774 16.3133 25.3743 14.8721 25.3743 13.4166C25.3743 11.9611 25.0774 10.5199 24.5005 9.17518C23.9237 7.83049 23.0781 6.60867 22.0122 5.57949C20.9462 4.5503 19.6808 3.73391 18.2881 3.17692C16.8954 2.61993 15.4026 2.33325 13.8952 2.33325C10.8507 2.33325 7.93095 3.50096 5.77819 5.57949C3.62542 7.65801 2.41602 10.4771 2.41602 13.4166C2.41602 16.3561 3.62542 19.1752 5.77819 21.2537C7.93095 23.3322 10.8507 24.4999 13.8952 24.4999Z" stroke="white" stroke-width="1.5" stroke-linecap="round" stroke-linejoin="round"/>
</svg>
