<svg width="171" height="21" viewBox="0 0 171 21" fill="none" xmlns="http://www.w3.org/2000/svg">
<path d="M8.01124 2.50791H18.0253L17.0239 4.17983H13.7593C14.24 4.66468 14.6005 5.23313 14.8108 5.85174H18.0253L17.0239 7.52365H15.0211C14.897 8.56588 14.3547 9.54254 13.4822 10.2952C12.6097 11.0478 11.4581 11.5323 10.2143 11.67V11.7034H9.51335L15.5218 17.5551H13.0183L7.00984 11.7034V10.0315H9.51335C11.2758 10.0315 12.7379 8.94478 12.9782 7.52365H7.00984L8.01124 5.85174H12.6778C12.117 4.86531 10.9153 4.17983 9.51335 4.17983H7.00984L8.01124 2.50791Z" fill="black"/>
<path d="M154.978 2.50791H164.992L163.99 4.17983H160.726C161.206 4.66468 161.567 5.23313 161.777 5.85174H164.992L163.99 7.52365H161.987C161.863 8.56588 161.321 9.54254 160.448 10.2952C159.576 11.0478 158.424 11.5323 157.181 11.67V11.7034H156.48L162.488 17.5551H159.985L153.976 11.7034V10.0315H156.48C158.242 10.0315 159.704 8.94478 159.944 7.52365H153.976L154.978 5.85174H159.644C159.083 4.86531 157.882 4.17983 156.48 4.17983H153.976L154.978 2.50791Z" fill="black"/>
</svg>
