<svg width="25" height="25" viewBox="0 0 25 25" fill="none" xmlns="http://www.w3.org/2000/svg">
<path d="M2.08325 2.08331H3.89575C5.02075 2.08331 5.90617 3.05206 5.81242 4.16665L4.94784 14.5416C4.91408 14.9436 4.96418 15.3482 5.09496 15.7297C5.22573 16.1113 5.43434 16.4615 5.70756 16.7582C5.98078 17.055 6.31266 17.2917 6.68216 17.4535C7.05166 17.6152 7.45073 17.6984 7.85409 17.6979H18.9478C20.4478 17.6979 21.7603 16.4687 21.8749 14.9791L22.4374 7.16665C22.5624 5.43748 21.2499 4.03123 19.5103 4.03123H6.06242M9.37492 8.33331H21.8749M16.927 22.9166C17.2723 22.9166 17.6035 22.7795 17.8477 22.5353C18.0919 22.2911 18.2291 21.9599 18.2291 21.6146C18.2291 21.2692 18.0919 20.938 17.8477 20.6939C17.6035 20.4497 17.2723 20.3125 16.927 20.3125C16.5817 20.3125 16.2505 20.4497 16.0063 20.6939C15.7621 20.938 15.6249 21.2692 15.6249 21.6146C15.6249 21.9599 15.7621 22.2911 16.0063 22.5353C16.2505 22.7795 16.5817 22.9166 16.927 22.9166ZM8.59367 22.9166C8.939 22.9166 9.27019 22.7795 9.51438 22.5353C9.75857 22.2911 9.89575 21.9599 9.89575 21.6146C9.89575 21.2692 9.75857 20.938 9.51438 20.6939C9.27019 20.4497 8.939 20.3125 8.59367 20.3125C8.24834 20.3125 7.91715 20.4497 7.67296 20.6939C7.42877 20.938 7.29159 21.2692 7.29159 21.6146C7.29159 21.9599 7.42877 22.2911 7.67296 22.5353C7.91715 22.7795 8.24834 22.9166 8.59367 22.9166Z" stroke="black" stroke-width="1.5" stroke-miterlimit="10" stroke-linecap="round" stroke-linejoin="round"/>
</svg>
