<svg width="17" height="15" viewBox="0 0 17 15" fill="none" xmlns="http://www.w3.org/2000/svg">
<path fill-rule="evenodd" clip-rule="evenodd" d="M4.645 1.11333C4.87328 0.770889 5.18257 0.490097 5.54541 0.29588C5.90826 0.101663 6.31344 2.98988e-05 6.725 0H9.94167C10.3532 2.98988e-05 10.7584 0.101663 11.1213 0.29588C11.4841 0.490097 11.7934 0.770889 12.0217 1.11333L12.6983 2.12917C12.7745 2.24326 12.8776 2.33681 12.9985 2.4015C13.1195 2.46619 13.2545 2.50002 13.3917 2.5H14.1667C14.8297 2.5 15.4656 2.76339 15.9344 3.23223C16.4033 3.70107 16.6667 4.33696 16.6667 5V12.5C16.6667 13.163 16.4033 13.7989 15.9344 14.2678C15.4656 14.7366 14.8297 15 14.1667 15H2.5C1.83696 15 1.20107 14.7366 0.732233 14.2678C0.263392 13.7989 0 13.163 0 12.5V5C0 4.33696 0.263392 3.70107 0.732233 3.23223C1.20107 2.76339 1.83696 2.5 2.5 2.5H3.275C3.41216 2.50002 3.54721 2.46619 3.66815 2.4015C3.7891 2.33681 3.89221 2.24326 3.96833 2.12917L4.645 1.11333ZM6.66667 8.33333C6.66667 7.89131 6.84226 7.46738 7.15482 7.15482C7.46738 6.84226 7.89131 6.66667 8.33333 6.66667C8.77536 6.66667 9.19928 6.84226 9.51185 7.15482C9.82441 7.46738 10 7.89131 10 8.33333C10 8.77536 9.82441 9.19928 9.51185 9.51184C9.19928 9.82441 8.77536 10 8.33333 10C7.89131 10 7.46738 9.82441 7.15482 9.51184C6.84226 9.19928 6.66667 8.77536 6.66667 8.33333ZM8.33333 5C7.44928 5 6.60143 5.35119 5.97631 5.97631C5.35119 6.60143 5 7.44928 5 8.33333C5 9.21739 5.35119 10.0652 5.97631 10.6904C6.60143 11.3155 7.44928 11.6667 8.33333 11.6667C9.21739 11.6667 10.0652 11.3155 10.6904 10.6904C11.3155 10.0652 11.6667 9.21739 11.6667 8.33333C11.6667 7.44928 11.3155 6.60143 10.6904 5.97631C10.0652 5.35119 9.21739 5 8.33333 5Z" fill="white"/>
</svg>
