<svg width="22" height="23" viewBox="0 0 22 23" fill="none" xmlns="http://www.w3.org/2000/svg">
<path d="M7.79232 18.2083H7.33398C3.66732 18.2083 1.83398 17.25 1.83398 12.4583V7.66663C1.83398 3.83329 3.66732 1.91663 7.33398 1.91663H14.6673C18.334 1.91663 20.1673 3.83329 20.1673 7.66663V12.4583C20.1673 16.2916 18.334 18.2083 14.6673 18.2083H14.209C13.9248 18.2083 13.6498 18.352 13.4757 18.5916L12.1007 20.5083C11.4957 21.3516 10.5057 21.3516 9.90065 20.5083L8.52565 18.5916C8.37898 18.3808 8.03982 18.2083 7.79232 18.2083Z" stroke="#08215E" stroke-width="1.5" stroke-miterlimit="10" stroke-linecap="round" stroke-linejoin="round"/>
<path d="M14.6624 10.5416H14.6715M10.9948 10.5416H11.004M7.32812 10.5416H7.33546" stroke="#08215E" stroke-width="2" stroke-linecap="round" stroke-linejoin="round"/>
</svg>
