<svg width="22" height="23" viewBox="0 0 22 23" fill="none" xmlns="http://www.w3.org/2000/svg">
<path d="M20.1667 21.0834L18.3334 19.1667M10.5417 20.125C11.6853 20.125 12.8177 19.8895 13.8742 19.432C14.9308 18.9745 15.8908 18.3039 16.6994 17.4585C17.5081 16.6131 18.1495 15.6094 18.5872 14.5049C19.0248 13.4003 19.25 12.2164 19.25 11.0209C19.25 9.82528 19.0248 8.64141 18.5872 7.53684C18.1495 6.43227 17.5081 5.42864 16.6994 4.58324C15.8908 3.73784 14.9308 3.06723 13.8742 2.6097C12.8177 2.15217 11.6853 1.91669 10.5417 1.91669C8.23211 1.91669 6.01711 2.87587 4.38399 4.58324C2.75086 6.2906 1.83337 8.60628 1.83337 11.0209C1.83337 13.4354 2.75086 15.7511 4.38399 17.4585C6.01711 19.1658 8.23211 20.125 10.5417 20.125Z" stroke="black" stroke-width="1.5" stroke-linecap="round" stroke-linejoin="round"/>
</svg>
