<svg width="31" height="31" viewBox="0 0 31 31" fill="none" xmlns="http://www.w3.org/2000/svg">
<path d="M10.9798 24.5417H10.334C5.16732 24.5417 2.58398 23.25 2.58398 16.7917V10.3334C2.58398 5.16671 5.16732 2.58337 10.334 2.58337H20.6673C25.834 2.58337 28.4173 5.16671 28.4173 10.3334V16.7917C28.4173 21.9584 25.834 24.5417 20.6673 24.5417H20.0215C19.6211 24.5417 19.2336 24.7355 18.9882 25.0584L17.0507 27.6417C16.1982 28.7784 14.8032 28.7784 13.9507 27.6417L12.0132 25.0584C11.8065 24.7742 11.3286 24.5417 10.9798 24.5417Z" stroke="white" stroke-width="1.5" stroke-miterlimit="10" stroke-linecap="round" stroke-linejoin="round"/>
<path d="M20.6608 14.2084H20.6737M15.4928 14.2084H15.5058M10.3262 14.2084H10.3365" stroke="white" stroke-width="2" stroke-linecap="round" stroke-linejoin="round"/>
</svg>
