<svg width="27" height="27" viewBox="0 0 27 27" fill="none" xmlns="http://www.w3.org/2000/svg">
<path d="M13.5 20.925C16.6455 20.925 19.305 18.954 20.3985 16.2H6.60151C7.68151 18.954 10.3545 20.925 13.5 20.925ZM8.77501 12.15C9.31208 12.15 9.82714 11.9367 10.2069 11.5569C10.5867 11.1771 10.8 10.6621 10.8 10.125C10.8 9.58795 10.5867 9.07288 10.2069 8.69312C9.82714 8.31336 9.31208 8.10001 8.77501 8.10001C8.23795 8.10001 7.72288 8.31336 7.34312 8.69312C6.96336 9.07288 6.75001 9.58795 6.75001 10.125C6.75001 10.6621 6.96336 11.1771 7.34312 11.5569C7.72288 11.9367 8.23795 12.15 8.77501 12.15ZM18.225 12.15C18.7621 12.15 19.2772 11.9367 19.6569 11.5569C20.0367 11.1771 20.25 10.6621 20.25 10.125C20.25 9.58795 20.0367 9.07288 19.6569 8.69312C19.2772 8.31336 18.7621 8.10001 18.225 8.10001C17.688 8.10001 17.1729 8.31336 16.7931 8.69312C16.4134 9.07288 16.2 9.58795 16.2 10.125C16.2 10.6621 16.4134 11.1771 16.7931 11.5569C17.1729 11.9367 17.688 12.15 18.225 12.15ZM13.5 24.3C10.6357 24.3 7.88865 23.1622 5.86326 21.1368C3.83786 19.1114 2.7 16.3644 2.7 13.5C2.7 10.6357 3.83786 7.88865 5.86326 5.86326C7.88865 3.83786 10.6357 2.7 13.5 2.7C16.3644 2.7 19.1114 3.83786 21.1368 5.86326C23.1622 7.88865 24.3 10.6357 24.3 13.5C24.3 16.3644 23.1622 19.1114 21.1368 21.1368C19.1114 23.1622 16.3644 24.3 13.5 24.3ZM13.5 0C6.03451 0 0 6.07501 0 13.5C0 17.0804 1.42232 20.5142 3.95406 23.046C5.20766 24.2996 6.69589 25.294 8.33379 25.9724C9.97168 26.6509 11.7272 27 13.5 27C17.0804 27 20.5142 25.5777 23.046 23.046C25.5777 20.5142 27 17.0804 27 13.5C27 11.7272 26.6509 9.97168 25.9724 8.33379C25.294 6.69589 24.2996 5.20766 23.046 3.95406C21.7924 2.70047 20.3042 1.70607 18.6663 1.02763C17.0284 0.349188 15.2729 0 13.5 0Z" fill="#8A8A8A"/>
</svg>
