<svg width="22" height="22" viewBox="0 0 22 22" fill="none" xmlns="http://www.w3.org/2000/svg">
<path d="M14.6667 1.83337H7.33333C6.8471 1.83337 6.38079 2.02653 6.03697 2.37034C5.69315 2.71416 5.5 3.18048 5.5 3.66671V18.3334C5.5 18.8196 5.69315 19.2859 6.03697 19.6297C6.38079 19.9736 6.8471 20.1667 7.33333 20.1667H14.6667C15.1529 20.1667 15.6192 19.9736 15.963 19.6297C16.3068 19.2859 16.5 18.8196 16.5 18.3334V3.66671C16.5 3.18048 16.3068 2.71416 15.963 2.37034C15.6192 2.02653 15.1529 1.83337 14.6667 1.83337ZM11.9167 19.25H10.0833V18.3334H11.9167V19.25ZM14.6667 17.4167H7.33333V4.58337H14.6667V17.4167Z" fill="#131111"/>
</svg>
