<svg width="28" height="29" viewBox="0 0 28 29" fill="none" xmlns="http://www.w3.org/2000/svg">
<path d="M19.832 12.0834C21.765 12.0834 23.332 10.4604 23.332 8.45837C23.332 6.45634 21.765 4.83337 19.832 4.83337C17.899 4.83337 16.332 6.45634 16.332 8.45837C16.332 10.4604 17.899 12.0834 19.832 12.0834Z" stroke="#08215E" stroke-width="1.5" stroke-linecap="round" stroke-linejoin="round"/>
<path d="M8.16602 24.1667C10.099 24.1667 11.666 22.5438 11.666 20.5417C11.666 18.5397 10.099 16.9167 8.16602 16.9167C6.23302 16.9167 4.66602 18.5397 4.66602 20.5417C4.66602 22.5438 6.23302 24.1667 8.16602 24.1667Z" stroke="#08215E" stroke-width="1.5" stroke-linecap="round" stroke-linejoin="round"/>
<path d="M16.3327 16.9167H23.3327V22.9584C23.3327 23.2788 23.2098 23.5862 22.991 23.8128C22.7722 24.0394 22.4754 24.1667 22.166 24.1667H17.4993C17.1899 24.1667 16.8932 24.0394 16.6744 23.8128C16.4556 23.5862 16.3327 23.2788 16.3327 22.9584V16.9167ZM4.66602 4.83337H11.666V10.875C11.666 11.1955 11.5431 11.5029 11.3243 11.7295C11.1055 11.9561 10.8088 12.0834 10.4993 12.0834H5.83268C5.52326 12.0834 5.22652 11.9561 5.00772 11.7295C4.78893 11.5029 4.66602 11.1955 4.66602 10.875V4.83337Z" stroke="#08215E" stroke-width="1.5" stroke-linecap="round" stroke-linejoin="round"/>
</svg>
