<svg width="33" height="32" viewBox="0 0 33 32" fill="none" xmlns="http://www.w3.org/2000/svg">
<g clip-path="url(#clip0_371_4558)">
<path d="M22.6853 13.3333H26.6887M26.6887 13.3333H30.6921M26.6887 13.3333V9.33325M26.6887 13.3333V17.3333M1.33398 26.6666V25.3333C1.33398 22.8579 2.31815 20.4839 4.06996 18.7336C5.82178 16.9833 8.19776 15.9999 10.6752 15.9999M10.6752 15.9999C13.1526 15.9999 15.5286 16.9833 17.2804 18.7336C19.0323 20.4839 20.0164 22.8579 20.0164 25.3333V26.6666M10.6752 15.9999C12.0909 15.9999 13.4486 15.438 14.4496 14.4378C15.4507 13.4376 16.013 12.0811 16.013 10.6666C16.013 9.2521 15.4507 7.89554 14.4496 6.89535C13.4486 5.89515 12.0909 5.33325 10.6752 5.33325C9.25952 5.33325 7.90182 5.89515 6.90078 6.89535C5.89974 7.89554 5.33736 9.2521 5.33736 10.6666C5.33736 12.0811 5.89974 13.4376 6.90078 14.4378C7.90182 15.438 9.25952 15.9999 10.6752 15.9999Z" stroke="white" stroke-width="1.50063" stroke-linecap="round" stroke-linejoin="round"/>
</g>
<defs>
<clipPath id="clip0_371_4558">
<rect width="32.027" height="32" fill="white"/>
</clipPath>
</defs>
</svg>
