<svg width="24" height="189" viewBox="0 0 24 189" fill="none" xmlns="http://www.w3.org/2000/svg">
<path d="M12 22C14.7614 22 17.2614 20.8807 19.0711 19.0711C20.8807 17.2614 22 14.7614 22 12C22 9.2386 20.8807 6.7386 19.0711 4.92893C17.2614 3.11929 14.7614 2 12 2C9.2386 2 6.7386 3.11929 4.92893 4.92893C3.11929 6.7386 2 9.2386 2 12C2 14.7614 3.11929 17.2614 4.92893 19.0711C6.7386 20.8807 9.2386 22 12 22Z" fill="#3BB819" stroke="white" stroke-linejoin="round"/>
<path d="M8 12L11 15L17 9" stroke="white" stroke-width="2" stroke-linecap="round" stroke-linejoin="round"/>
<path d="M12 103.91C14.7614 103.91 17.2614 102.79 19.0711 100.981C20.8807 99.1709 22 96.6709 22 93.9095C22 91.1481 20.8807 88.6481 19.0711 86.8385C17.2614 85.0288 14.7614 83.9095 12 83.9095C9.2386 83.9095 6.7386 85.0288 4.92893 86.8385C3.11929 88.6481 2 91.1481 2 93.9095C2 96.6709 3.11929 99.1709 4.92893 100.981C6.7386 102.79 9.2386 103.91 12 103.91Z" fill="#3BB819" stroke="white" stroke-linejoin="round"/>
<path d="M8 93.9095L11 96.9095L17 90.9095" stroke="white" stroke-width="2" stroke-linecap="round" stroke-linejoin="round"/>
<path d="M12 186.115C14.7614 186.115 17.2614 184.995 19.0711 183.186C20.8807 181.376 22 178.876 22 176.115C22 173.353 20.8807 170.853 19.0711 169.043C17.2614 167.234 14.7614 166.115 12 166.115C9.2386 166.115 6.7386 167.234 4.92893 169.043C3.11929 170.853 2 173.353 2 176.115C2 178.876 3.11929 181.376 4.92893 183.186C6.7386 184.995 9.2386 186.115 12 186.115Z" fill="#CBCCCB" stroke="#969696" stroke-linejoin="round"/>
<line x1="13" y1="20.7357" x2="13" y2="83.4957" stroke="#3BB819" stroke-width="2"/>
<line x1="13" y1="102.736" x2="13" y2="165.867" stroke="#3BB819" stroke-width="2"/>
<line x1="13" y1="102.736" x2="13" y2="165.867" stroke="#3BB819" stroke-width="2"/>
<line x1="13" y1="102.736" x2="13" y2="165.867" stroke="#3BB819" stroke-width="2"/>
<line x1="13" y1="102.736" x2="13" y2="165.867" stroke="#969696" stroke-width="2"/>
<line x1="13" y1="102.736" x2="13" y2="143.05" stroke="#3BB819" stroke-width="2"/>
<line x1="13" y1="102.736" x2="13" y2="143.05" stroke="#3BB819" stroke-width="2"/>
<line x1="13" y1="102.736" x2="13" y2="143.05" stroke="#3BB819" stroke-width="2"/>
<line x1="13" y1="102.736" x2="13" y2="143.05" stroke="#3BB819" stroke-width="2"/>
<circle cx="12.9988" cy="144.05" r="3.72534" fill="#3BB819"/>
</svg>
