<svg width="21" height="15" viewBox="0 0 21 15" fill="none" xmlns="http://www.w3.org/2000/svg">
<path d="M18 9C16.6065 9 15.4425 9.96 15.1065 11.25H0V12.75H15.1065C15.4418 14.04 16.6065 15 18 15C19.6545 15 21 13.6545 21 12C21 10.3455 19.6545 9 18 9ZM18 13.5C17.1728 13.5 16.5 12.8272 16.5 12C16.5 11.1728 17.1728 10.5 18 10.5C18.8273 10.5 19.5 11.1728 19.5 12C19.5 12.8272 18.8273 13.5 18 13.5ZM18 0C16.6065 0 15.4425 0.96 15.1065 2.25H0V3.75H15.1065C15.4418 5.04 16.6065 6 18 6C19.6545 6 21 4.6545 21 3C21 1.3455 19.6545 0 18 0ZM18 4.5C17.1728 4.5 16.5 3.82725 16.5 3C16.5 2.17275 17.1728 1.5 18 1.5C18.8273 1.5 19.5 2.17275 19.5 3C19.5 3.82725 18.8273 4.5 18 4.5Z" fill="black"/>
</svg>
