<svg width="30" height="23" viewBox="0 0 30 23" fill="none" xmlns="http://www.w3.org/2000/svg">
<path d="M20.3108 14.3774C20.0622 14.3774 19.8237 14.4762 19.6478 14.652C19.472 14.8278 19.3732 15.0663 19.3732 15.315C19.3732 15.5637 19.472 15.8022 19.6478 15.978C19.8237 16.1539 20.0622 16.2527 20.3108 16.2527H24.6866C24.9352 16.2527 25.1737 16.1539 25.3496 15.978C25.5254 15.8022 25.6242 15.5637 25.6242 15.315C25.6242 15.0663 25.5254 14.8278 25.3496 14.652C25.1737 14.4762 24.9352 14.3774 24.6866 14.3774H20.3108ZM0 4.68827C0 3.44486 0.493941 2.25238 1.37316 1.37316C2.25238 0.493941 3.44486 0 4.68827 0H25.3117C26.5551 0 27.7475 0.493941 28.6268 1.37316C29.506 2.25238 29.9999 3.44486 29.9999 4.68827V17.8154C29.9999 19.0588 29.506 20.2513 28.6268 21.1305C27.7475 22.0098 26.5551 22.5037 25.3117 22.5037H4.68952C3.44611 22.5037 2.25363 22.0098 1.37441 21.1305C0.495192 20.2513 0.00125041 19.0588 0.00125041 17.8154V4.68827H0ZM4.68827 1.87531C3.94223 1.87531 3.22674 2.17167 2.69921 2.69921C2.17167 3.22674 1.87531 3.94223 1.87531 4.68827V5.62592H28.1246V4.68827C28.1246 3.94223 27.8283 3.22674 27.3007 2.69921C26.7732 2.17167 26.0577 1.87531 25.3117 1.87531H4.68827ZM1.87531 17.8154C1.87531 18.5615 2.17167 19.277 2.69921 19.8045C3.22674 20.332 3.94223 20.6284 4.68827 20.6284H25.3117C26.0577 20.6284 26.7732 20.332 27.3007 19.8045C27.8283 19.277 28.1246 18.5615 28.1246 17.8154V7.50123H1.87656V17.8154H1.87531Z" fill="black"/>
</svg>
