<svg width="22" height="22" viewBox="0 0 22 22" fill="none" xmlns="http://www.w3.org/2000/svg">
<g clip-path="url(#clip0_359_1887)">
<path fill-rule="evenodd" clip-rule="evenodd" d="M11.6483 14.3981C11.4764 14.5699 11.2433 14.6665 11.0002 14.6665C10.7572 14.6665 10.5241 14.5699 10.3521 14.3981L5.16657 9.21249C5.07902 9.12793 5.00918 9.02678 4.96114 8.91494C4.9131 8.80311 4.88781 8.68282 4.88675 8.56111C4.8857 8.43939 4.90889 8.31869 4.95498 8.20603C5.00107 8.09338 5.06914 7.99103 5.1552 7.90496C5.24127 7.81889 5.34362 7.75083 5.45628 7.70474C5.56893 7.65864 5.68964 7.63545 5.81135 7.63651C5.93307 7.63757 6.05335 7.66285 6.16519 7.7109C6.27702 7.75894 6.37817 7.82877 6.46273 7.91632L11.0002 12.4538L15.5377 7.91632C15.7106 7.74934 15.9422 7.65695 16.1825 7.65904C16.4229 7.66113 16.6528 7.75753 16.8227 7.92749C16.9927 8.09745 17.0891 8.32736 17.0912 8.5677C17.0933 8.80805 17.0009 9.0396 16.8339 9.21249L11.6483 14.3981Z" fill="black"/>
</g>
<defs>
<clipPath id="clip0_359_1887">
<rect width="22" height="22" fill="white"/>
</clipPath>
</defs>
</svg>
