<svg width="30" height="30" viewBox="0 0 30 30" fill="none" xmlns="http://www.w3.org/2000/svg">
<path d="M28.3357 23.068C27.2498 21.9738 24.6197 20.3771 23.3437 19.7336C21.6819 18.8965 21.5452 18.8282 20.239 19.7985C19.3678 20.4461 18.7886 21.0247 17.769 20.8072C16.7493 20.5897 14.5337 19.3636 12.5936 17.4297C10.6536 15.4958 9.3563 13.2158 9.13816 12.1996C8.92001 11.1834 9.50811 10.6111 10.1496 9.7378C11.0536 8.50688 10.9852 8.30173 10.2125 6.63998C9.61001 5.34752 7.96673 2.74207 6.86847 1.66159C5.69363 0.501108 5.69363 0.706261 4.93661 1.02083C4.32031 1.28014 3.72905 1.59534 3.17024 1.96248C2.07609 2.68941 1.46883 3.29325 1.04417 4.20071C0.619499 5.10817 0.428707 7.23561 2.6218 11.2197C4.81489 15.2038 6.35354 17.2409 9.5382 20.4167C12.7229 23.5925 15.1717 25.3001 18.7516 27.3078C23.1802 29.7881 24.8789 29.3047 25.7891 28.8807C26.6993 28.4567 27.3059 27.8549 28.0342 26.7608C28.4023 26.2029 28.7182 25.6123 28.9779 24.9964C29.2931 24.2422 29.4983 24.2422 28.3357 23.068Z" stroke="black" stroke-width="1.5" stroke-miterlimit="10"/>
</svg>
