<svg width="73" height="34" viewBox="0 0 73 34" fill="none" xmlns="http://www.w3.org/2000/svg">
<rect width="72.6376" height="34" rx="4" fill="#E4E4E4"/>
<path d="M30.4875 17L24.75 11.2625V14.3375L23.675 14.5C18.2875 15.2625 14.6375 18.0875 12.55 22.4125C15.45 20.3625 19.05 19.375 23.5 19.375H24.75V22.7375M22.25 20.65C16.6625 20.9125 12.6625 22.925 9.75 27C11 20.75 14.75 14.5 23.5 13.25V8.25L32.25 17L23.5 25.75V20.625C23.0875 20.625 22.675 20.6375 22.25 20.65Z" fill="#595959"/>
<path d="M63.3941 7.76379H55.254C54.3918 7.76681 53.5657 8.14315 52.9561 8.81066C52.3465 9.47817 52.0028 10.3826 52 11.3266V24.3407C52 26.0018 53.0881 26.7121 54.4169 25.8987L58.5288 23.3899C58.9683 23.1264 59.6798 23.1264 60.1087 23.3899L64.2207 25.8987C65.5494 26.7121 66.6376 26.0018 66.6376 24.3407V11.3266C66.6383 10.8595 66.5549 10.3968 66.3923 9.96495C66.2297 9.53309 65.9909 9.14054 65.6898 8.8097C65.3886 8.47886 65.0308 8.21621 64.6369 8.03675C64.243 7.8573 63.8207 7.76455 63.3941 7.76379Z" stroke="black" stroke-opacity="0.65" stroke-width="1.5" stroke-linecap="round" stroke-linejoin="round"/>
</svg>
