<svg width="26" height="26" viewBox="0 0 26 26" fill="none" xmlns="http://www.w3.org/2000/svg">
<path d="M23.6226 10.8783H22.75V10.8333H13V15.1666H19.1225C18.2293 17.6892 15.8291 19.5 13 19.5C9.4104 19.5 6.50002 16.5896 6.50002 13C6.50002 9.41033 9.4104 6.49996 13 6.49996C14.657 6.49996 16.1644 7.12504 17.3122 8.14608L20.3764 5.08188C18.4416 3.27867 15.8535 2.16663 13 2.16663C7.01731 2.16663 2.16669 7.01725 2.16669 13C2.16669 18.9827 7.01731 23.8333 13 23.8333C18.9827 23.8333 23.8334 18.9827 23.8334 13C23.8334 12.2736 23.7586 11.5645 23.6226 10.8783Z" fill="#FFC107"/>
<path d="M3.41577 7.95758L6.97506 10.5679C7.93815 8.18346 10.2706 6.49996 13 6.49996C14.657 6.49996 16.1644 7.12504 17.3122 8.14608L20.3764 5.08188C18.4416 3.27867 15.8535 2.16663 13 2.16663C8.83894 2.16663 5.23035 4.51583 3.41577 7.95758Z" fill="#FF3D00"/>
<path d="M13 23.8333C15.7983 23.8333 18.3409 22.7625 20.2632 21.021L16.9103 18.1838C15.7861 19.0387 14.4124 19.5011 13 19.5C10.1823 19.5 7.78974 17.7033 6.8884 15.1959L3.35565 17.9178C5.14857 21.4262 8.78965 23.8333 13 23.8333Z" fill="#4CAF50"/>
<path d="M23.6226 10.8783H22.75V10.8334H13V15.1667H19.1225C18.6952 16.3673 17.9256 17.4163 16.9087 18.1843L16.9103 18.1832L20.2632 21.0205C20.026 21.2361 23.8333 18.4167 23.8333 13C23.8333 12.2737 23.7586 11.5646 23.6226 10.8783Z" fill="white"/>
</svg>
