<svg width="21" height="26" viewBox="0 0 21 26" fill="none" xmlns="http://www.w3.org/2000/svg">
<path d="M15.8442 0.764689H5.07114C3.93013 0.768691 2.83688 1.26722 2.03005 2.15146C1.22323 3.03569 0.768341 4.23382 0.764689 5.48431V22.7238C0.764689 24.9243 2.20479 25.8652 3.96337 24.7877L9.40529 21.4643C9.98687 21.1152 10.9285 21.1152 11.4962 21.4643L16.9381 24.7877C18.6967 25.8652 20.1368 24.9243 20.1368 22.7238V5.48431C20.1377 4.86552 20.0274 4.25259 19.8122 3.68052C19.597 3.10844 19.281 2.58843 18.8824 2.15018C18.4838 1.71192 18.0103 1.364 17.489 1.12627C16.9677 0.888552 16.4088 0.765685 15.8442 0.764689Z" stroke="white" stroke-width="1.5" stroke-linecap="round" stroke-linejoin="round"/>
</svg>
