<svg width="33" height="31" viewBox="0 0 33 31" fill="none" xmlns="http://www.w3.org/2000/svg">
<path d="M16.5276 3.75873C11.9763 3.75873 8.27756 7.23331 8.27756 11.5087V15.2416C8.27756 16.0296 7.92006 17.2308 7.49381 17.9025L5.91256 20.3696C4.93631 21.8937 5.61006 23.5858 7.39756 24.1541C13.3238 26.0141 19.7176 26.0141 25.6438 24.1541C27.3076 23.6375 28.0363 21.7904 27.1288 20.3696L25.5476 17.9025C25.1351 17.2308 24.7776 16.0296 24.7776 15.2416V11.5087C24.7776 7.24623 21.0651 3.75873 16.5276 3.75873Z" stroke="white" stroke-width="1.5" stroke-miterlimit="10" stroke-linecap="round"/>
<path d="M19.0713 4.13336C17.4085 3.6885 15.6465 3.6885 13.9838 4.13336C14.3825 3.17753 15.3725 2.50586 16.5275 2.50586C17.6825 2.50586 18.6725 3.17753 19.0713 4.13336Z" stroke="white" stroke-width="1.5" stroke-miterlimit="10" stroke-linecap="round" stroke-linejoin="round"/>
<path d="M20.6525 24.6191C20.6525 26.7504 18.7962 28.4941 16.5275 28.4941C15.4 28.4941 14.355 28.055 13.6125 27.3575C12.8399 26.6307 12.4049 25.6462 12.4025 24.6191" stroke="white" stroke-width="1.5" stroke-miterlimit="10"/>
</svg>
