<svg width="31" height="31" viewBox="0 0 31 31" fill="none" xmlns="http://www.w3.org/2000/svg">
<path d="M16.2746 18.6C16.8912 18.6 17.4826 18.8449 17.9186 19.281C18.3547 19.717 18.5996 20.3083 18.5996 20.925V21.7C18.5996 24.755 15.7166 27.9 10.8496 27.9C5.98261 27.9 3.09961 24.755 3.09961 21.7V20.925C3.09961 20.3083 3.34456 19.717 3.78059 19.281C4.21661 18.8449 4.80798 18.6 5.42461 18.6H16.2746ZM16.2746 20.15H5.42461C5.21907 20.15 5.02194 20.2316 4.8766 20.377C4.73126 20.5223 4.64961 20.7194 4.64961 20.925V21.7C4.64961 23.9289 6.86921 26.35 10.8496 26.35C14.83 26.35 17.0496 23.9289 17.0496 21.7V20.925C17.0496 20.7194 16.968 20.5223 16.8226 20.377C16.6773 20.2316 16.4802 20.15 16.2746 20.15ZM10.8496 8.52498C11.9801 8.52498 13.0643 8.97406 13.8637 9.77343C14.663 10.5728 15.1121 11.657 15.1121 12.7875C15.1121 13.918 14.663 15.0021 13.8637 15.8015C13.0643 16.6009 11.9801 17.05 10.8496 17.05C9.71912 17.05 8.63494 16.6009 7.83557 15.8015C7.03619 15.0021 6.58711 13.918 6.58711 12.7875C6.58711 11.657 7.03619 10.5728 7.83557 9.77343C8.63494 8.97406 9.71912 8.52498 10.8496 8.52498ZM24.7996 3.09998C25.5814 3.10012 26.3343 3.39567 26.9075 3.92742C27.4806 4.45917 27.8317 5.18785 27.8903 5.96748L27.8996 6.19998V9.29998C27.8999 10.0821 27.6045 10.8354 27.0727 11.4088C26.5409 11.9823 25.812 12.3336 25.0321 12.3922L24.7996 12.4H22.4731L20.6162 14.88C19.7947 15.9743 18.13 15.531 17.8618 14.2972L17.8355 14.1251L17.8246 13.95V12.2992L17.7037 12.2682C17.1466 12.0994 16.6481 11.7774 16.2652 11.3389C15.8824 10.9004 15.6305 10.363 15.5384 9.78823L15.5074 9.53093L15.4996 9.29998V6.19998C15.4994 5.41788 15.7947 4.6646 16.3265 4.09113C16.8583 3.51766 17.5872 3.16638 18.3671 3.10773L18.5996 3.09998H24.7996ZM10.8496 10.075C10.4934 10.075 10.1407 10.1451 9.81158 10.2815C9.48249 10.4178 9.18346 10.6176 8.93158 10.8694C8.6797 11.1213 8.4799 11.4204 8.34359 11.7494C8.20727 12.0785 8.13711 12.4313 8.13711 12.7875C8.13711 13.1437 8.20727 13.4964 8.34359 13.8255C8.4799 14.1546 8.6797 14.4536 8.93158 14.7055C9.18346 14.9574 9.48249 15.1572 9.81158 15.2935C10.1407 15.4298 10.4934 15.5 10.8496 15.5C11.569 15.5 12.2589 15.2142 12.7676 14.7055C13.2763 14.1968 13.5621 13.5069 13.5621 12.7875C13.5621 12.0681 13.2763 11.3781 12.7676 10.8694C12.2589 10.3608 11.569 10.075 10.8496 10.075ZM24.7996 4.64998H18.5996C18.22 4.65003 17.8535 4.78941 17.5698 5.04168C17.2861 5.29396 17.1049 5.64159 17.0605 6.01863L17.0496 6.19998V9.29998C17.0497 9.67962 17.189 10.046 17.4413 10.3298C17.6936 10.6135 18.0412 10.7947 18.4183 10.8391L18.5996 10.85H19.3746V13.95L21.6996 10.85H24.7996C25.1793 10.8499 25.5457 10.7105 25.8294 10.4583C26.1131 10.206 26.2943 9.85837 26.3388 9.48133L26.3496 9.29998V6.19998C26.3496 5.82033 26.2102 5.4539 25.9579 5.1702C25.7056 4.88649 25.358 4.70524 24.981 4.66083L24.7996 4.64998Z" fill="#08215E"/>
</svg>
