<svg width="28" height="29" viewBox="0 0 28 29" fill="none" xmlns="http://www.w3.org/2000/svg">
<g clip-path="url(#clip0_141_617)">
<path d="M27.9867 14.7713C27.9867 13.5831 27.8914 12.7161 27.6852 11.817H14.2789V17.1796H22.1481C21.9895 18.5123 21.1328 20.5192 19.2289 21.8678L19.2022 22.0474L23.4411 25.3705L23.7347 25.4002C26.4318 22.8794 27.9867 19.1705 27.9867 14.7713Z" fill="#4285F4"/>
<path d="M14.2789 28.9004C18.1342 28.9004 21.3707 27.6158 23.7347 25.4002L19.2289 21.8679C18.0232 22.7188 16.4049 23.3129 14.2789 23.3129C10.503 23.3129 7.29818 20.7922 6.15576 17.3081L5.98831 17.3225L1.58071 20.7745L1.52307 20.9366C3.87113 25.657 8.69424 28.9004 14.2789 28.9004Z" fill="#34A853"/>
<path d="M6.15573 17.3081C5.8543 16.409 5.67984 15.4456 5.67984 14.4502C5.67984 13.4547 5.8543 12.4914 6.13988 11.5923L6.13189 11.4008L1.66906 7.89331L1.52305 7.9636C0.555297 9.92243 0 12.1221 0 14.4502C0 16.7783 0.555297 18.9778 1.52305 20.9367L6.15573 17.3081Z" fill="#FBBC05"/>
<path d="M14.2789 5.58737C16.9601 5.58737 18.7688 6.75944 19.8001 7.7389L23.8299 3.75705C21.3549 1.42897 18.1342 0 14.2789 0C8.69424 0 3.87113 3.24324 1.52307 7.9636L6.1399 11.5923C7.29818 8.10816 10.503 5.58737 14.2789 5.58737Z" fill="#EB4335"/>
</g>
<defs>
<clipPath id="clip0_141_617">
<rect width="28" height="29" fill="white"/>
</clipPath>
</defs>
</svg>
