<svg width="22" height="22" viewBox="0 0 22 22" fill="none" xmlns="http://www.w3.org/2000/svg">
<path d="M17.8747 3.66671H15.1247V2.29171C15.1247 2.17015 15.0764 2.05357 14.9904 1.96762C14.9045 1.88166 14.7879 1.83337 14.6663 1.83337C14.5448 1.83337 14.4282 1.88166 14.3423 1.96762C14.2563 2.05357 14.208 2.17015 14.208 2.29171V3.66671H7.79134V2.29171C7.79134 2.17015 7.74305 2.05357 7.6571 1.96762C7.57114 1.88166 7.45457 1.83337 7.33301 1.83337C7.21145 1.83337 7.09487 1.88166 7.00892 1.96762C6.92296 2.05357 6.87467 2.17015 6.87467 2.29171V3.66671H4.12467C3.51711 3.66744 2.93464 3.90911 2.50503 4.33872C2.07541 4.76834 1.83374 5.35081 1.83301 5.95837V17.875C1.83374 18.4826 2.07541 19.0651 2.50503 19.4947C2.93464 19.9243 3.51711 20.166 4.12467 20.1667H17.8747C18.4823 20.1662 19.0649 19.9246 19.4946 19.495C19.9243 19.0653 20.1659 18.4827 20.1663 17.875V5.95837C20.1659 5.35074 19.9243 4.76812 19.4946 4.33846C19.0649 3.90879 18.4823 3.66719 17.8747 3.66671ZM19.2497 17.875C19.2497 18.2397 19.1048 18.5894 18.8469 18.8473C18.5891 19.1052 18.2393 19.25 17.8747 19.25H4.12467C3.76 19.25 3.41027 19.1052 3.1524 18.8473C2.89454 18.5894 2.74967 18.2397 2.74967 17.875V10.0834H19.2497V17.875ZM19.2497 9.16671H2.74967V5.95837C2.74967 5.19937 3.36384 4.58337 4.12467 4.58337H6.87467V5.95837C6.87467 6.07993 6.92296 6.19651 7.00892 6.28246C7.09487 6.36842 7.21145 6.41671 7.33301 6.41671C7.45457 6.41671 7.57114 6.36842 7.6571 6.28246C7.74305 6.19651 7.79134 6.07993 7.79134 5.95837V4.58337H14.208V5.95837C14.208 6.07993 14.2563 6.19651 14.3423 6.28246C14.4282 6.36842 14.5448 6.41671 14.6663 6.41671C14.7879 6.41671 14.9045 6.36842 14.9904 6.28246C15.0764 6.19651 15.1247 6.07993 15.1247 5.95837V4.58337H17.8747C18.2393 4.58337 18.5891 4.72824 18.8469 4.9861C19.1048 5.24396 19.2497 5.5937 19.2497 5.95837V9.16671Z" fill="#3072D5"/>
</svg>
