<svg width="22" height="22" viewBox="0 0 22 22" fill="none" xmlns="http://www.w3.org/2000/svg">
<path d="M18.3333 5.5H3.66667C3.42355 5.5 3.19039 5.59658 3.01849 5.76849C2.84658 5.94039 2.75 6.17355 2.75 6.41667V15.5833C2.75 15.8264 2.84658 16.0596 3.01849 16.2315C3.19039 16.4034 3.42355 16.5 3.66667 16.5H18.3333C18.5764 16.5 18.8096 16.4034 18.9815 16.2315C19.1534 16.0596 19.25 15.8264 19.25 15.5833V6.41667C19.25 6.17355 19.1534 5.94039 18.9815 5.76849C18.8096 5.59658 18.5764 5.5 18.3333 5.5Z" stroke="#131111" stroke-width="2" stroke-linejoin="round"/>
<path d="M2.75 7.33337L9.9825 12.155C10.2838 12.356 10.6378 12.4633 11 12.4633C11.3622 12.4633 11.7162 12.356 12.0175 12.155L19.25 7.33337" stroke="#131111" stroke-width="2" stroke-linecap="round"/>
</svg>
