<svg width="23" height="23" viewBox="0 0 23 23" fill="none" xmlns="http://www.w3.org/2000/svg">
<path d="M11.5013 9.58329C13.6184 9.58329 15.3346 7.86705 15.3346 5.74996C15.3346 3.63287 13.6184 1.91663 11.5013 1.91663C9.38421 1.91663 7.66797 3.63287 7.66797 5.74996C7.66797 7.86705 9.38421 9.58329 11.5013 9.58329Z" stroke="#08215E" stroke-width="1.3"/>
<path d="M19.1644 17.2499C19.1673 17.0928 19.1673 16.9327 19.1673 16.7708C19.1673 14.3893 15.7346 12.4583 11.5007 12.4583C7.26673 12.4583 3.83398 14.3893 3.83398 16.7708C3.83398 19.1522 3.83398 21.0833 11.5007 21.0833C13.6387 21.0833 15.1807 20.9328 16.2923 20.6645" stroke="#08215E" stroke-width="1.5" stroke-linecap="round"/>
</svg>
