<svg width="13" height="13" viewBox="0 0 13 13" fill="none" xmlns="http://www.w3.org/2000/svg">
<path d="M11.2398 6.5L11.8378 5.4665C11.9097 5.34215 11.9292 5.19436 11.8921 5.0556C11.8551 4.91685 11.7644 4.7985 11.6401 4.72658L10.6055 4.12858V2.93691C10.6055 2.79325 10.5484 2.65548 10.4469 2.5539C10.3453 2.45231 10.2075 2.39525 10.0638 2.39525H8.87272L8.27526 1.3612C8.20311 1.23712 8.08499 1.14644 7.94647 1.10879C7.87777 1.09016 7.80605 1.08536 7.73548 1.09466C7.66491 1.10396 7.59688 1.12717 7.53535 1.16295L6.50076 1.76095L5.46618 1.16241C5.34177 1.09059 5.19392 1.07112 5.05516 1.1083C4.9164 1.14548 4.7981 1.23626 4.72626 1.36066L4.12826 2.39525H2.93714C2.79348 2.39525 2.6557 2.45231 2.55412 2.5539C2.45254 2.65548 2.39547 2.79325 2.39547 2.93691V4.12804L1.36089 4.72604C1.29916 4.76155 1.24505 4.8089 1.20167 4.86539C1.1583 4.92187 1.12651 4.98637 1.10814 5.05518C1.08977 5.12398 1.08517 5.19574 1.09462 5.26633C1.10406 5.33691 1.12736 5.40494 1.16318 5.4665L1.76118 6.5L1.16318 7.53349C1.09167 7.65796 1.07227 7.80564 1.10921 7.94435C1.14614 8.08305 1.23642 8.20153 1.36035 8.27395L2.39493 8.87195V10.0631C2.39493 10.2067 2.452 10.3445 2.55358 10.4461C2.65516 10.5477 2.79294 10.6047 2.9366 10.6047H4.12826L4.72626 11.6393C4.77422 11.7213 4.84269 11.7894 4.92494 11.8369C5.00718 11.8844 5.10038 11.9096 5.19535 11.9102C5.2896 11.9102 5.38331 11.8852 5.46672 11.837L6.50022 11.239L7.53481 11.837C7.65918 11.9088 7.80693 11.9282 7.94564 11.8912C8.08435 11.8541 8.2027 11.7635 8.27472 11.6393L8.87218 10.6047H10.0633C10.207 10.6047 10.3447 10.5477 10.4463 10.4461C10.5479 10.3445 10.605 10.2067 10.605 10.0631V8.87195L11.6396 8.27395C11.7012 8.23834 11.7552 8.19093 11.7985 8.13444C11.8418 8.07794 11.8735 8.01347 11.8919 7.9447C11.9102 7.87593 11.9149 7.80422 11.9055 7.73366C11.8961 7.66311 11.8729 7.59509 11.8373 7.53349L11.2398 6.5ZM5.14606 3.78625C5.36162 3.78632 5.56832 3.87202 5.72069 4.02449C5.87306 4.17697 5.95863 4.38373 5.95856 4.59929C5.95848 4.81485 5.87278 5.02155 5.72031 5.17392C5.56783 5.3263 5.36107 5.41186 5.14551 5.41179C4.92995 5.41172 4.72325 5.32601 4.57088 5.17354C4.4185 5.02107 4.33294 4.81431 4.33301 4.59875C4.33309 4.38319 4.41879 4.17648 4.57126 4.02411C4.72373 3.87174 4.93049 3.78617 5.14606 3.78625ZM5.30856 8.98624L4.44189 8.33679L7.69189 4.00345L8.55856 4.65291L5.30856 8.98624ZM7.85439 9.20291C7.74765 9.20288 7.64197 9.18182 7.54338 9.14094C7.44478 9.10006 7.3552 9.04016 7.27975 8.96466C7.2043 8.88917 7.14447 8.79955 7.10365 8.70092C7.06284 8.6023 7.04185 8.4966 7.04189 8.38987C7.04192 8.28314 7.06298 8.17745 7.10386 8.07886C7.14474 7.98026 7.20464 7.89068 7.28014 7.81523C7.35563 7.73979 7.44525 7.67995 7.54388 7.63913C7.6425 7.59832 7.7482 7.57733 7.85493 7.57737C8.07049 7.57744 8.27719 7.66314 8.42957 7.81562C8.58194 7.96809 8.6675 8.17485 8.66743 8.39041C8.66736 8.60597 8.58166 8.81267 8.42918 8.96505C8.27671 9.11742 8.06995 9.20298 7.85439 9.20291Z" fill="#2DA50C"/>
</svg>
