<svg width="25" height="25" viewBox="0 0 25 25" fill="none" xmlns="http://www.w3.org/2000/svg">
<g clip-path="url(#clip0_244_1286)">
<path d="M0 4.6875V6.25H14.8438V17.9688H10.0344C9.68594 16.6258 8.47812 15.625 7.03125 15.625C5.58437 15.625 4.37656 16.6258 4.02813 17.9688H3.125V14.0625H1.5625V19.5312H4.02813C4.37656 20.8742 5.58437 21.875 7.03125 21.875C8.47812 21.875 9.68594 20.8742 10.0344 19.5312H16.5281C16.8766 20.8742 18.0844 21.875 19.5312 21.875C20.9781 21.875 22.1859 20.8742 22.5344 19.5312H25V13.1594L24.9508 13.0367L23.3883 8.34922L23.2188 7.8125H16.4062V4.6875H0ZM0.78125 7.8125V9.375H7.8125V7.8125H0.78125ZM16.4062 9.375H22.0945L23.4375 13.3789V17.9688H22.5344C22.1859 16.6258 20.9781 15.625 19.5312 15.625C18.0844 15.625 16.8766 16.6258 16.5281 17.9688H16.4062V9.375ZM1.5625 10.9375V12.5H6.25V10.9375H1.5625ZM7.03125 17.1875C7.90391 17.1875 8.59375 17.8773 8.59375 18.75C8.59375 19.6227 7.90391 20.3125 7.03125 20.3125C6.15859 20.3125 5.46875 19.6227 5.46875 18.75C5.46875 17.8773 6.15859 17.1875 7.03125 17.1875ZM19.5312 17.1875C20.4039 17.1875 21.0938 17.8773 21.0938 18.75C21.0938 19.6227 20.4039 20.3125 19.5312 20.3125C18.6586 20.3125 17.9688 19.6227 17.9688 18.75C17.9688 17.8773 18.6586 17.1875 19.5312 17.1875Z" fill="black"/>
</g>
<defs>
<clipPath id="clip0_244_1286">
<rect width="25" height="25" fill="white"/>
</clipPath>
</defs>
</svg>
