<svg width="30" height="31" viewBox="0 0 30 31" fill="none" xmlns="http://www.w3.org/2000/svg">
<path d="M27.5 28.4167L25 25.8334M14.375 27.125C15.9344 27.125 17.4786 26.8076 18.9194 26.191C20.3601 25.5743 21.6692 24.6704 22.7719 23.531C23.8746 22.3915 24.7493 21.0388 25.3461 19.5501C25.9428 18.0613 26.25 16.4656 26.25 14.8542C26.25 13.2428 25.9428 11.6471 25.3461 10.1584C24.7493 8.6696 23.8746 7.31687 22.7719 6.17742C21.6692 5.03797 20.3601 4.1341 18.9194 3.51744C17.4786 2.90077 15.9344 2.58337 14.375 2.58337C11.2256 2.58337 8.2051 3.87619 5.97811 6.17742C3.75111 8.47865 2.5 11.5998 2.5 14.8542C2.5 18.1086 3.75111 21.2298 5.97811 23.531C8.2051 25.8322 11.2256 27.125 14.375 27.125Z" stroke="white" stroke-width="1.5" stroke-linecap="round" stroke-linejoin="round"/>
</svg>
