<svg width="33" height="31" viewBox="0 0 33 31" fill="none" xmlns="http://www.w3.org/2000/svg">
<path d="M16.5271 3.75879C11.9758 3.75879 8.27707 7.23337 8.27707 11.5088V15.2417C8.27707 16.0296 7.91957 17.2309 7.49332 17.9025L5.91207 20.3696C4.93582 21.8938 5.60957 23.5859 7.39707 24.1542C13.3233 26.0142 19.7171 26.0142 25.6433 24.1542C27.3071 23.6375 28.0358 21.7905 27.1283 20.3696L25.5471 17.9025C25.1346 17.2309 24.7771 16.0296 24.7771 15.2417V11.5088C24.7771 7.24629 21.0646 3.75879 16.5271 3.75879Z" stroke="white" stroke-width="1.5" stroke-miterlimit="10" stroke-linecap="round"/>
<path d="M19.0709 4.13336C17.4081 3.6885 15.6462 3.6885 13.9834 4.13336C14.3821 3.17753 15.3721 2.50586 16.5271 2.50586C17.6821 2.50586 18.6721 3.17753 19.0709 4.13336Z" stroke="white" stroke-width="1.5" stroke-miterlimit="10" stroke-linecap="round" stroke-linejoin="round"/>
<path d="M20.6523 24.6191C20.6523 26.7504 18.7961 28.4941 16.5273 28.4941C15.3998 28.4941 14.3548 28.055 13.6123 27.3575C12.8398 26.6307 12.4048 25.6462 12.4023 24.6191" stroke="white" stroke-width="1.5" stroke-miterlimit="10"/>
</svg>
