<svg width="69" height="13" viewBox="0 0 69 13" fill="none" xmlns="http://www.w3.org/2000/svg">
<path d="M6.44703 10.3087L10.4313 12.7134L9.37398 8.18117L12.8941 5.13172L8.25865 4.73846L6.44703 0.464074L4.63541 4.73846L0 5.13172L3.52008 8.18117L2.46277 12.7134L6.44703 10.3087Z" fill="#0A0909" fill-opacity="0.56"/>
<path d="M20.3564 10.3086L24.3407 12.7133L23.2833 8.18105L26.8034 5.1316L22.168 4.73833L20.3564 0.463951L18.5448 4.73833L13.9094 5.1316L17.4294 8.18105L16.3721 12.7133L20.3564 10.3086Z" fill="#0A0909" fill-opacity="0.56"/>
<path d="M34.2638 10.3086L38.248 12.7133L37.1907 8.18105L40.7108 5.1316L36.0754 4.73833L34.2638 0.463951L32.4521 4.73833L27.8167 5.1316L31.3368 8.18105L30.2795 12.7133L34.2638 10.3086Z" fill="#0A0909" fill-opacity="0.56"/>
<path d="M48.1731 10.3086L52.1574 12.7133L51.1001 8.18105L54.6202 5.1316L49.9847 4.73833L48.1731 0.463951L46.3615 4.73833L41.7261 5.1316L45.2462 8.18105L44.1889 12.7133L48.1731 10.3086Z" fill="#0A0909" fill-opacity="0.56"/>
<path d="M62.3169 9.05889L64.8042 10.451L64.249 7.65566L66.3416 5.72008L63.5111 5.3845L62.3175 2.7965V9.05889H62.3169ZM62.3169 10.4012L58.1863 12.7134L59.1087 8.0703L55.6335 4.85624L60.3345 4.2987L62.3169 0L64.2994 4.2987L69.0004 4.85624L65.5252 8.0703L66.4476 12.7134L62.3169 10.4012Z" fill="#0A0909" fill-opacity="0.56"/>
</svg>
