<svg width="130" height="24" viewBox="0 0 130 24" fill="none" xmlns="http://www.w3.org/2000/svg">
<path d="M12.1063 18.1186L19.588 22.5444L17.6026 14.203L24.2126 8.59059L15.5082 7.8668L12.1063 0L8.70444 7.8668L0 8.59059L6.61004 14.203L4.62461 22.5444L12.1063 18.1186Z" fill="#FFCE31"/>
<path d="M38.3309 18.1186L45.8126 22.5444L43.8272 14.203L50.4372 8.59059L41.7328 7.8668L38.3309 0L34.9291 7.8668L26.2246 8.59059L32.8347 14.203L30.8492 22.5444L38.3309 18.1186Z" fill="#FFCE31"/>
<path d="M64.5565 18.1186L72.0382 22.5444L70.0528 14.203L76.6628 8.59059L67.9584 7.8668L64.5565 0L61.1546 7.8668L52.4502 8.59059L59.0603 14.203L57.0748 22.5444L64.5565 18.1186Z" fill="#FFCE31"/>
<path d="M90.7811 18.1186L98.2628 22.5444L96.2774 14.203L102.887 8.59059L94.183 7.8668L90.7811 0L87.3793 7.8668L78.6748 8.59059L85.2849 14.203L83.2994 22.5444L90.7811 18.1186Z" fill="#FFCE31"/>
<path d="M117.45 16.6725L122.12 19.2346L121.078 14.0899L125.007 10.5275L119.692 9.90992L117.451 5.14682V16.6725H117.45ZM117.45 19.1429L109.693 23.3984L111.425 14.853L104.899 8.93768L113.727 7.91155L117.45 0L121.172 7.91155L130 8.93768L123.474 14.853L125.206 23.3984L117.45 19.1429Z" fill="#FFCE31"/>
</svg>
