<svg width="32" height="32" viewBox="0 0 32 32" fill="none" xmlns="http://www.w3.org/2000/svg">
<path d="M27.9993 2.66663H7.99935C7.2921 2.66663 6.61383 2.94758 6.11373 3.44767C5.61363 3.94777 5.33268 4.62605 5.33268 5.33329V9.33329H2.66602V12H5.33268V14.6666H2.66602V17.3333H5.33268V20H2.66602V22.6666H5.33268V26.6666C5.33268 27.3739 5.61363 28.0521 6.11373 28.5522C6.61383 29.0523 7.2921 29.3333 7.99935 29.3333H27.9993C28.353 29.3333 28.6921 29.1928 28.9422 28.9428C29.1922 28.6927 29.3327 28.3536 29.3327 28V3.99996C29.3327 3.64634 29.1922 3.3072 28.9422 3.05715C28.6921 2.8071 28.353 2.66663 27.9993 2.66663ZM17.3327 6.66529C19.53 6.66529 21.3327 8.46663 21.3327 10.6653C21.3288 11.7251 20.9062 12.7404 20.1569 13.4899C19.4076 14.2394 18.3925 14.6624 17.3327 14.6666C15.1367 14.6666 13.3327 12.8626 13.3327 10.6653C13.3327 8.46663 15.1367 6.66529 17.3327 6.66529ZM25.3327 24H9.33268V23C9.33268 20.0413 12.9393 17 17.3327 17C21.726 17 25.3327 20.0413 25.3327 23V24Z" fill="#3072D5"/>
</svg>
