<svg width="24" height="265" viewBox="0 0 24 265" fill="none" xmlns="http://www.w3.org/2000/svg">
<path d="M12 22C14.7614 22 17.2614 20.8807 19.0711 19.0711C20.8807 17.2614 22 14.7614 22 12C22 9.2386 20.8807 6.7386 19.0711 4.92893C17.2614 3.11929 14.7614 2 12 2C9.2386 2 6.7386 3.11929 4.92893 4.92893C3.11929 6.7386 2 9.2386 2 12C2 14.7614 3.11929 17.2614 4.92893 19.0711C6.7386 20.8807 9.2386 22 12 22Z" fill="#3BB819" stroke="white" stroke-linejoin="round"/>
<path d="M8 12L11 15L17 9" stroke="white" stroke-width="2" stroke-linecap="round" stroke-linejoin="round"/>
<path d="M12 102.205C14.7614 102.205 17.2614 101.085 19.0711 99.2758C20.8807 97.4662 22 94.9662 22 92.2048C22 89.4434 20.8807 86.9434 19.0711 85.1337C17.2614 83.3241 14.7614 82.2048 12 82.2048C9.2386 82.2048 6.7386 83.3241 4.92893 85.1337C3.11929 86.9434 2 89.4434 2 92.2048C2 94.9662 3.11929 97.4662 4.92893 99.2758C6.7386 101.085 9.2386 102.205 12 102.205Z" fill="#3BB819" stroke="white" stroke-linejoin="round"/>
<path d="M8 92.2048L11 95.2048L17 89.2048" stroke="white" stroke-width="2" stroke-linecap="round" stroke-linejoin="round"/>
<path d="M12 179.91C14.7614 179.91 17.2614 178.79 19.0711 176.981C20.8807 175.171 22 172.671 22 169.91C22 167.148 20.8807 164.648 19.0711 162.838C17.2614 161.029 14.7614 159.91 12 159.91C9.2386 159.91 6.7386 161.029 4.92893 162.838C3.11929 164.648 2 167.148 2 169.91C2 172.671 3.11929 175.171 4.92893 176.981C6.7386 178.79 9.2386 179.91 12 179.91Z" fill="#3BB819" stroke="white" stroke-linejoin="round"/>
<path d="M8 169.91L11 172.91L17 166.91" stroke="white" stroke-width="2" stroke-linecap="round" stroke-linejoin="round"/>
<path d="M12 262.115C14.7614 262.115 17.2614 260.995 19.0711 259.186C20.8807 257.376 22 254.876 22 252.115C22 249.353 20.8807 246.853 19.0711 245.043C17.2614 243.234 14.7614 242.115 12 242.115C9.2386 242.115 6.7386 243.234 4.92893 245.043C3.11929 246.853 2 249.353 2 252.115C2 254.876 3.11929 257.376 4.92893 259.186C6.7386 260.995 9.2386 262.115 12 262.115Z" fill="#CBCCCB" stroke="#969696" stroke-linejoin="round"/>
<line x1="13" y1="20.7357" x2="13" y2="83.4957" stroke="#3BB819" stroke-width="2"/>
<line x1="13" y1="101.736" x2="13" y2="164.496" stroke="#3BB819" stroke-width="2"/>
<line x1="13" y1="178.736" x2="13" y2="241.867" stroke="#3BB819" stroke-width="2"/>
<line x1="13" y1="178.736" x2="13" y2="241.867" stroke="#3BB819" stroke-width="2"/>
<line x1="13" y1="178.736" x2="13" y2="241.867" stroke="#3BB819" stroke-width="2"/>
<line x1="13" y1="178.736" x2="13" y2="241.867" stroke="#969696" stroke-width="2"/>
<line x1="13" y1="178.736" x2="13" y2="219.05" stroke="#3BB819" stroke-width="2"/>
<line x1="13" y1="178.736" x2="13" y2="219.05" stroke="#3BB819" stroke-width="2"/>
<line x1="13" y1="178.736" x2="13" y2="219.05" stroke="#3BB819" stroke-width="2"/>
<line x1="13" y1="178.736" x2="13" y2="219.05" stroke="#3BB819" stroke-width="2"/>
<circle cx="12.9998" cy="219.05" r="3.72534" fill="#3BB819"/>
</svg>
