<svg width="22" height="20" viewBox="0 0 22 20" fill="none" xmlns="http://www.w3.org/2000/svg">
<path d="M0.653174 10.9998L11.0001 0.652806L21.3471 10.9998" stroke="#08215E" stroke-width="1.3" stroke-linecap="round" stroke-linejoin="round"/>
<path d="M2.95203 8.70041V17.8977C2.95203 18.2026 3.07316 18.495 3.28876 18.7106C3.50436 18.9262 3.79678 19.0474 4.10169 19.0474H7.55068C7.85559 19.0474 8.14801 18.9262 8.36361 18.7106C8.57921 18.495 8.70034 18.2026 8.70034 17.8977V13.299C8.70034 12.9941 8.82146 12.7017 9.03707 12.4861C9.25267 12.2705 9.54509 12.1494 9.85 12.1494H12.1493C12.4542 12.1494 12.7466 12.2705 12.9623 12.4861C13.1779 12.7017 13.299 12.9941 13.299 13.299V17.8977C13.299 18.2026 13.4201 18.495 13.6357 18.7106C13.8513 18.9262 14.1437 19.0474 14.4486 19.0474H17.8976C18.2025 19.0474 18.495 18.9262 18.7106 18.7106C18.9262 18.495 19.0473 18.2026 19.0473 17.8977V8.70041" stroke="#08215E" stroke-width="1.3" stroke-linecap="round" stroke-linejoin="round"/>
</svg>
