<svg width="33" height="34" viewBox="0 0 33 34" fill="none" xmlns="http://www.w3.org/2000/svg">
<g clip-path="url(#clip0_325_2177)">
<path fill-rule="evenodd" clip-rule="evenodd" d="M15.5347 3.10959C16.0774 2.90042 16.6702 2.87316 17.2287 3.03168L17.4653 3.10959L27.0903 6.82834C27.5783 7.01689 28.0042 7.34444 28.3185 7.77284C28.6328 8.20123 28.8225 8.71283 28.8654 9.24801L28.875 9.48176V17.0793C28.8749 19.3749 28.2733 21.6279 27.1337 23.6005C25.9941 25.5731 24.3587 27.1921 22.4001 28.2866L22.0344 28.4835L17.4226 30.8593C17.1687 30.9899 16.8913 31.0651 16.6079 31.0802C16.3245 31.0953 16.041 31.05 15.7754 30.9471L15.5774 30.8593L10.9656 28.4835C8.97271 27.4568 7.28582 25.8948 6.08301 23.9624C4.8802 22.0299 4.2061 19.7987 4.13188 17.5043L4.125 17.0793V9.48176C4.12501 8.94503 4.27299 8.41933 4.55171 7.96588C4.83043 7.51243 5.22843 7.14988 5.69937 6.92043L5.90975 6.82834L15.5347 3.10959ZM21.2204 12.2244L14.8981 18.7383L12.4671 16.2336C12.2091 15.968 11.8593 15.8188 11.4945 15.8189C11.1298 15.8191 10.78 15.9685 10.5222 16.2343C10.2644 16.5001 10.1196 16.8606 10.1197 17.2364C10.1199 17.6122 10.2649 17.9725 10.5229 18.2382L13.8284 21.6438C13.9688 21.7886 14.1356 21.9035 14.3192 21.9818C14.5027 22.0602 14.6994 22.1005 14.8981 22.1005C15.0968 22.1005 15.2935 22.0602 15.4771 21.9818C15.6606 21.9035 15.8274 21.7886 15.9679 21.6438L23.1646 14.2276C23.296 14.0969 23.4007 13.9406 23.4728 13.7677C23.5448 13.5949 23.5828 13.409 23.5843 13.2209C23.5859 13.0328 23.5511 12.8463 23.482 12.6722C23.4129 12.4981 23.3108 12.3399 23.1817 12.2069C23.0526 12.0739 22.899 11.9687 22.7301 11.8974C22.5611 11.8262 22.38 11.7904 22.1974 11.792C22.0149 11.7936 21.8344 11.8327 21.6667 11.9069C21.4989 11.9812 21.3472 12.0891 21.2204 12.2244Z" fill="#2C9F03"/>
</g>
<defs>
<clipPath id="clip0_325_2177">
<rect width="33" height="34" fill="white"/>
</clipPath>
</defs>
</svg>
