<svg width="19" height="19" viewBox="0 0 19 19" fill="none" xmlns="http://www.w3.org/2000/svg">
<path d="M16.1059 13.5821H14.8015C14.7124 13.5821 14.6289 13.621 14.5733 13.6897C14.4434 13.8474 14.3042 13.9995 14.1576 14.1443C13.5581 14.7444 12.848 15.2226 12.0665 15.5526C11.2569 15.8945 10.3867 16.07 9.50783 16.0684C8.61906 16.0684 7.75813 15.894 6.94914 15.5526C6.16767 15.2226 5.45754 14.7444 4.85803 14.1443C4.25744 13.5462 3.77855 12.8373 3.44787 12.0569C3.10461 11.2479 2.93205 10.3888 2.93205 9.50003C2.93205 8.61126 3.10647 7.75218 3.44787 6.94319C3.77815 6.16204 4.25315 5.45882 4.85803 4.85579C5.46291 4.25276 6.16613 3.77776 6.94914 3.44749C7.75813 3.10608 8.61906 2.93167 9.50783 2.93167C10.3966 2.93167 11.2575 3.10423 12.0665 3.44749C12.8495 3.77776 13.5528 4.25276 14.1576 4.85579C14.3042 5.00237 14.4415 5.15452 14.5733 5.31038C14.6289 5.37903 14.7143 5.418 14.8015 5.418H16.1059C16.2228 5.418 16.2951 5.28811 16.2302 5.18977C14.8071 2.97806 12.317 1.51409 9.48742 1.52151C5.04172 1.53265 1.47737 5.14153 1.5219 9.58167C1.56643 13.9513 5.12522 17.4785 9.50783 17.4785C12.33 17.4785 14.8089 16.0164 16.2302 13.8103C16.2933 13.7119 16.2228 13.5821 16.1059 13.5821ZM17.7554 9.38313L15.1225 7.30501C15.0241 7.22708 14.8813 7.29759 14.8813 7.4219V8.83206H9.0551C8.97346 8.83206 8.90666 8.89886 8.90666 8.9805V10.0196C8.90666 10.1012 8.97346 10.168 9.0551 10.168H14.8813V11.5782C14.8813 11.7025 15.026 11.773 15.1225 11.695L17.7554 9.61692C17.7731 9.60304 17.7875 9.5853 17.7973 9.56504C17.8072 9.54479 17.8123 9.52256 17.8123 9.50003C17.8123 9.4775 17.8072 9.45527 17.7973 9.43501C17.7875 9.41476 17.7731 9.39702 17.7554 9.38313Z" fill="black"/>
</svg>
