<svg width="27" height="27" viewBox="0 0 27 27" fill="none" xmlns="http://www.w3.org/2000/svg">
<path d="M11.5525 1.53333C12.046 -0.511093 14.954 -0.511099 15.4475 1.53333L17.1085 8.41413C17.2848 9.14472 17.8553 9.71515 18.5859 9.89151L25.4666 11.5525C27.5111 12.046 27.5111 14.954 25.4667 15.4475L18.5859 17.1085C17.8553 17.2848 17.2848 17.8553 17.1085 18.5859L15.4475 25.4667C14.954 27.5111 12.046 27.5111 11.5525 25.4667L9.8915 18.5859C9.71514 17.8553 9.14471 17.2848 8.41411 17.1085L1.53332 15.4475C-0.511108 14.954 -0.511114 12.046 1.53331 11.5525L8.41411 9.89151C9.14471 9.71515 9.71514 9.14472 9.8915 8.41413L11.5525 1.53333Z" fill="white"/>
</svg>
