<svg width="21" height="19" viewBox="0 0 21 19" fill="none" xmlns="http://www.w3.org/2000/svg">
<path d="M5.136 15.8639C6.60845 17.3364 8.54594 18.2527 10.6183 18.4567C12.6906 18.6607 14.7696 18.1398 16.5009 16.9827C18.2322 15.8256 19.5087 14.104 20.1129 12.1112C20.717 10.1184 20.6115 7.97776 19.8142 6.05408C19.0169 4.13039 17.5772 2.5427 15.7404 1.56158C13.9037 0.580452 11.7835 0.266604 9.74131 0.673518C7.69909 1.08043 5.86116 2.18293 4.54073 3.79312C3.22031 5.40332 2.49909 7.42157 2.5 9.50394V11.4999" stroke="black" stroke-linecap="round" stroke-linejoin="round"/>
<path d="M0.5 9.49994L2.5 11.4999L4.5 9.49994M10.5 5.49994V10.4999H15.5" stroke="black" stroke-linecap="round" stroke-linejoin="round"/>
</svg>
