<svg width="19" height="19" viewBox="0 0 19 19" fill="none" xmlns="http://www.w3.org/2000/svg">
<path d="M11.2812 8.3125C11.2812 7.84008 11.0936 7.38701 10.7595 7.05297C10.4255 6.71892 9.97242 6.53125 9.5 6.53125C9.02758 6.53125 8.57451 6.71892 8.24047 7.05297C7.90642 7.38701 7.71875 7.84008 7.71875 8.3125C7.71875 8.78492 7.90642 9.23798 8.24047 9.57203C8.57451 9.90608 9.02758 10.0938 9.5 10.0938C9.97242 10.0938 10.4255 9.90608 10.7595 9.57203C11.0936 9.23798 11.2812 8.78492 11.2812 8.3125ZM16.625 8.3125C16.625 11.7254 12.9473 15.4565 10.8763 17.2876C10.4976 17.6258 10.0077 17.8127 9.5 17.8127C8.9923 17.8127 8.50237 17.6258 8.12369 17.2876C6.05269 15.4565 2.375 11.7254 2.375 8.3125C2.375 7.37683 2.55929 6.45033 2.91736 5.58588C3.27542 4.72144 3.80025 3.93598 4.46186 3.27436C5.12348 2.61275 5.90894 2.08792 6.77338 1.72986C7.63783 1.37179 8.56433 1.1875 9.5 1.1875C10.4357 1.1875 11.3622 1.37179 12.2266 1.72986C13.0911 2.08792 13.8765 2.61275 14.5381 3.27436C15.1998 3.93598 15.7246 4.72144 16.0826 5.58588C16.4407 6.45033 16.625 7.37683 16.625 8.3125ZM15.4375 8.3125C15.4375 6.73778 14.8119 5.22755 13.6984 4.11405C12.5849 3.00056 11.0747 2.375 9.5 2.375C7.92528 2.375 6.41505 3.00056 5.30155 4.11405C4.18806 5.22755 3.5625 6.73778 3.5625 8.3125C3.5625 9.62825 4.29281 11.1566 5.42688 12.6861C6.536 14.1799 7.90519 15.5087 8.90981 16.3982C9.07146 16.5447 9.28183 16.6259 9.5 16.6259C9.71817 16.6259 9.92854 16.5447 10.0902 16.3982C11.0948 15.5087 12.4652 14.1811 13.5731 12.6861C14.7072 11.1566 15.4375 9.62825 15.4375 8.3125Z" fill="#08215E"/>
</svg>
