<svg width="24" height="24" viewBox="0 0 24 24" fill="none" xmlns="http://www.w3.org/2000/svg">
<path d="M12 15.5C14.21 15.5 16 13.71 16 11.5V6C16 3.79 14.21 2 12 2C9.79 2 8 3.79 8 6V11.5C8 13.71 9.79 15.5 12 15.5Z" stroke="#545454" stroke-width="1.5" stroke-linecap="round" stroke-linejoin="round"/>
<path d="M4.34961 9.65012V11.3501C4.34961 15.5701 7.77961 19.0001 11.9996 19.0001M11.9996 19.0001C16.2196 19.0001 19.6496 15.5701 19.6496 11.3501V9.65012M11.9996 19.0001V22.0001M10.6096 6.43012C11.5096 6.10012 12.4896 6.10012 13.3896 6.43012M11.1996 8.55012C11.7296 8.41012 12.2796 8.41012 12.8096 8.55012" stroke="#545454" stroke-width="1.5" stroke-linecap="round" stroke-linejoin="round"/>
</svg>
