<svg width="400" height="39" viewBox="0 0 400 39" fill="none" xmlns="http://www.w3.org/2000/svg">
<path d="M14.7717 9.55367L5.40236 19.3329L14.7717 29.1121M31.6428 19.3329H5.66476" stroke="white" stroke-width="1.5" stroke-miterlimit="10" stroke-linecap="round" stroke-linejoin="round"/>
<path d="M397.58 29.5594L395.161 27.2232M384.877 28.3913C386.387 28.3913 387.881 28.1043 389.276 27.5466C390.67 26.9889 391.937 26.1716 393.004 25.1411C394.072 24.1107 394.918 22.8874 395.496 21.541C396.073 20.1947 396.371 18.7517 396.371 17.2944C396.371 15.8372 396.073 14.3942 395.496 13.0478C394.918 11.7015 394.072 10.4782 393.004 9.44772C391.937 8.41728 390.67 7.59989 389.276 7.04222C387.881 6.48455 386.387 6.19752 384.877 6.19752C381.829 6.19752 378.906 7.36665 376.75 9.44772C374.595 11.5288 373.384 14.3513 373.384 17.2944C373.384 20.2375 374.595 23.06 376.75 25.1411C378.906 27.2222 381.829 28.3913 384.877 28.3913Z" stroke="white" stroke-width="1.5" stroke-linecap="round" stroke-linejoin="round"/>
</svg>
