<svg width="29" height="29" viewBox="0 0 29 29" fill="none" xmlns="http://www.w3.org/2000/svg">
<path fill-rule="evenodd" clip-rule="evenodd" d="M9.96875 15.7084C9.96875 14.5066 10.4461 13.3541 11.2959 12.5043C12.1457 11.6545 13.2982 11.1771 14.5 11.1771C15.7018 11.1771 16.8543 11.6545 17.7041 12.5043C18.5539 13.3541 19.0312 14.5066 19.0312 15.7084C19.0312 16.9101 18.5539 18.0627 17.7041 18.9125C16.8543 19.7622 15.7018 20.2396 14.5 20.2396C13.2982 20.2396 12.1457 19.7622 11.2959 18.9125C10.4461 18.0627 9.96875 16.9101 9.96875 15.7084ZM14.5 12.9896C13.7789 12.9896 13.0874 13.2761 12.5776 13.7859C12.0677 14.2958 11.7812 14.9873 11.7812 15.7084C11.7812 16.4294 12.0677 17.121 12.5776 17.6308C13.0874 18.1407 13.7789 18.4271 14.5 18.4271C15.2211 18.4271 15.9126 18.1407 16.4224 17.6308C16.9323 17.121 17.2188 16.4294 17.2188 15.7084C17.2188 14.9873 16.9323 14.2958 16.4224 13.7859C15.9126 13.2761 15.2211 12.9896 14.5 12.9896Z" fill="black"/>
<path fill-rule="evenodd" clip-rule="evenodd" d="M12.8277 6.94794C12.2214 6.94794 11.6399 7.1888 11.2112 7.61754C10.7824 8.04628 10.5416 8.62777 10.5416 9.2341C10.5414 9.6222 10.3952 9.99603 10.1322 10.2814C9.86924 10.5668 9.50855 10.7429 9.12177 10.7747L6.42718 10.9922C6.1695 11.013 5.92579 11.1179 5.73363 11.2909C5.54148 11.4638 5.41154 11.6951 5.36385 11.9492C4.82207 14.8129 4.782 17.7489 5.24543 20.6263L5.36264 21.3561C5.47381 22.0449 6.04052 22.5705 6.73652 22.6273L9.08431 22.8182C12.6889 23.1106 16.3112 23.1106 19.9158 22.8182L22.2624 22.6273C22.6008 22.5999 22.9203 22.4598 23.1696 22.2293C23.4189 21.9988 23.5837 21.6913 23.6375 21.3561L23.7547 20.6263C24.2177 17.7488 24.1772 14.8128 23.6351 11.9492C23.5871 11.6954 23.4571 11.4643 23.265 11.2916C23.0728 11.1189 22.8292 11.0141 22.5717 10.9934L19.8783 10.7747C19.4914 10.7434 19.1303 10.5675 18.8672 10.282C18.6041 9.9965 18.4582 9.62236 18.4586 9.2341C18.4586 8.93388 18.3994 8.6366 18.2845 8.35923C18.1696 8.08186 18.0012 7.82983 17.789 7.61754C17.5767 7.40525 17.3246 7.23685 17.0473 7.12196C16.7699 7.00707 16.4726 6.94794 16.1724 6.94794H12.8277ZM8.73631 8.9876C8.7994 7.94521 9.2579 6.96617 10.0182 6.2503C10.7786 5.53443 11.7834 5.13568 12.8277 5.13544H16.1724C18.3534 5.13544 20.1357 6.83919 20.2638 8.9876L22.7191 9.18698C23.3724 9.23971 23.9901 9.50562 24.4774 9.9438C24.9647 10.382 25.2946 10.9681 25.4161 11.6121C25.9973 14.6813 26.0408 17.829 25.5442 20.9139L25.427 21.6449C25.3086 22.3803 24.947 23.0547 24.4 23.5603C23.853 24.0659 23.1522 24.3734 22.4098 24.4337L20.0632 24.6246C16.3605 24.9253 12.6396 24.9253 8.93689 24.6246L6.59031 24.4337C5.84789 24.3734 5.14713 24.0659 4.60013 23.5603C4.05314 23.0547 3.69151 22.3803 3.5731 21.6449L3.45589 20.9139C2.95947 17.8293 3.00281 14.6819 3.58398 11.6121C3.70574 10.9682 4.03562 10.3822 4.52288 9.94403C5.01015 9.50588 5.62783 9.2399 6.28098 9.18698L8.73631 8.9876Z" fill="black"/>
</svg>
