<svg width="35" height="34" viewBox="0 0 35 34" fill="none" xmlns="http://www.w3.org/2000/svg">
<path d="M9.37638 3.41839C9.56024 3.20522 9.65073 2.93052 9.62843 2.65326C9.60613 2.37601 9.47282 2.11829 9.25711 1.93545C9.0414 1.7526 8.76049 1.65921 8.47469 1.67531C8.18888 1.69141 7.92097 1.81572 7.72846 2.02156L5.8443 4.11823C4.77589 5.30761 4.17193 6.82402 4.13805 8.40223L4.05492 12.2541C4.05195 12.3937 4.0773 12.5324 4.12953 12.6624C4.18175 12.7924 4.25982 12.9112 4.35929 13.0119C4.45875 13.1126 4.57766 13.1933 4.70923 13.2493C4.84079 13.3054 4.98243 13.3357 5.12607 13.3386C5.2697 13.3415 5.41251 13.3169 5.54635 13.2661C5.68018 13.2154 5.80242 13.1396 5.90609 13.0429C6.00975 12.9463 6.09281 12.8308 6.15051 12.703C6.20822 12.5752 6.23945 12.4376 6.24242 12.2981L6.32409 8.44756C6.34748 7.36767 6.76097 6.33015 7.49221 5.51648L9.37638 3.41839Z" fill="#FFCE31"/>
<path fill-rule="evenodd" clip-rule="evenodd" d="M9.09657 10.9083C9.19451 9.39267 9.88337 7.97026 11.0229 6.93065C12.1625 5.89104 13.667 5.31238 15.2303 5.31248H16.0426V4.24998C16.0426 3.87426 16.1963 3.51392 16.4697 3.24824C16.7432 2.98257 17.1142 2.83331 17.5009 2.83331C17.8877 2.83331 18.2587 2.98257 18.5321 3.24824C18.8056 3.51392 18.9593 3.87426 18.9593 4.24998V5.31248H19.7716C21.3349 5.31238 22.8394 5.89104 23.979 6.93065C25.1185 7.97026 25.8074 9.39267 25.9053 10.9083L26.2276 15.9148C26.3504 17.8237 27.0102 19.6632 28.1351 21.233C28.3675 21.5575 28.5095 21.9349 28.5473 22.3285C28.5851 22.7221 28.5174 23.1185 28.3508 23.4792C28.1842 23.8399 27.9243 24.1525 27.5964 24.3867C27.2686 24.6209 26.884 24.7687 26.4799 24.8157L21.5114 25.3937V26.9166C21.5114 27.9499 21.0888 28.9408 20.3367 29.6714C19.5846 30.402 18.5646 30.8125 17.5009 30.8125C16.4373 30.8125 15.4173 30.402 14.6652 29.6714C13.9131 28.9408 13.4905 27.9499 13.4905 26.9166V25.3937L8.52199 24.8143C8.11817 24.7672 7.73377 24.6193 7.40614 24.3852C7.0785 24.1511 6.81878 23.8386 6.65219 23.4782C6.4856 23.1177 6.41781 22.7216 6.45541 22.3282C6.49301 21.9347 6.63472 21.5575 6.86678 21.233C7.99159 19.6632 8.65138 17.8237 8.77428 15.9148L9.09657 10.9097V10.9083ZM15.2303 7.43748C14.2234 7.43736 13.2544 7.81002 12.5204 8.47959C11.7864 9.14916 11.3428 10.0653 11.2797 11.0415L10.9589 16.048C10.8106 18.3444 10.0167 20.5572 8.66344 22.4456C8.64663 22.4691 8.63635 22.4964 8.6336 22.5249C8.63085 22.5533 8.63574 22.582 8.64777 22.6081C8.65981 22.6342 8.67859 22.6568 8.70229 22.6738C8.72599 22.6908 8.7538 22.7015 8.78303 22.7049L14.2328 23.341C16.4043 23.5931 18.5976 23.5931 20.7691 23.341L26.2189 22.7049C26.2481 22.7015 26.2759 22.6908 26.2996 22.6738C26.3233 22.6568 26.3421 22.6342 26.3541 22.6081C26.3662 22.582 26.371 22.5533 26.3683 22.5249C26.3655 22.4964 26.3553 22.4691 26.3384 22.4456C24.9857 20.5571 24.1922 18.3442 24.0445 16.048L23.7222 11.0415C23.6591 10.0653 23.2154 9.14916 22.4815 8.47959C21.7475 7.81002 20.7784 7.43736 19.7716 7.43748H15.2303ZM17.5009 28.6875C16.4947 28.6875 15.678 27.8941 15.678 26.9166V25.8541H19.3239V26.9166C19.3239 27.8941 18.5072 28.6875 17.5009 28.6875Z" fill="#FFCE31"/>
<path d="M25.73 1.91956C25.5115 2.10482 25.3777 2.36679 25.358 2.64786C25.3383 2.92893 25.4343 3.20609 25.625 3.41839L27.5091 5.51506C28.2402 6.32931 28.6531 7.36736 28.6758 8.44756L28.7589 12.2966C28.7649 12.5784 28.8859 12.8464 29.0952 13.0415C29.3046 13.2367 29.5852 13.343 29.8753 13.3372C30.1653 13.3314 30.4412 13.2138 30.642 13.0105C30.8429 12.8071 30.9524 12.5345 30.9464 12.2527L30.8633 8.40223C30.8294 6.82402 30.2254 5.30761 29.157 4.11823L27.2729 2.02156C27.0822 1.80933 26.8125 1.67936 26.5232 1.66023C26.2338 1.6411 25.9485 1.73438 25.73 1.91956Z" fill="#FFCE31"/>
</svg>
