<svg width="25" height="24" viewBox="0 0 25 24" fill="none" xmlns="http://www.w3.org/2000/svg">
<path d="M23.4883 11.1074L1.48479 0.105628C1.31233 0.0193816 1.11862 -0.0151756 0.926977 0.00611786C0.735335 0.0274114 0.553934 0.103648 0.404616 0.225647C0.262018 0.345159 0.155583 0.502077 0.0972771 0.678763C0.038971 0.855448 0.0311052 1.04489 0.0745641 1.2258L2.72498 10.9973H14.0368V12.9977H2.72498L0.0345579 22.7392C-0.0062221 22.8903 -0.0109824 23.0488 0.0206599 23.2021C0.0523022 23.3553 0.119464 23.499 0.216746 23.6216C0.314027 23.7442 0.438712 23.8422 0.580777 23.9078C0.722843 23.9734 0.878322 24.0048 1.03472 23.9994C1.19128 23.9985 1.34544 23.9608 1.48479 23.8894L23.4883 12.8876C23.6521 12.8037 23.7896 12.6762 23.8856 12.5191C23.9816 12.3621 24.0324 12.1816 24.0324 11.9975C24.0324 11.8134 23.9816 11.6329 23.8856 11.4759C23.7896 11.3188 23.6521 11.1913 23.4883 11.1074Z" fill="white"/>
</svg>
