<svg width="28" height="20" viewBox="0 0 28 20" fill="none" xmlns="http://www.w3.org/2000/svg">
<path d="M22.4999 12.5V2.49999C22.4999 1.125 21.3749 0 19.9999 0H2.49999C1.125 0 0 1.125 0 2.49999V12.5C0 13.875 1.125 15 2.49999 15H19.9999C21.3749 15 22.4999 13.875 22.4999 12.5ZM19.9999 12.5H2.49999V2.49999H19.9999V12.5ZM11.25 3.74999C9.17497 3.74999 7.49998 5.42499 7.49998 7.49998C7.49998 9.57497 9.17497 11.25 11.25 11.25C13.325 11.25 15 9.57497 15 7.49998C15 5.42499 13.325 3.74999 11.25 3.74999ZM27.4999 3.74999V17.5C27.4999 18.8749 26.3749 19.9999 24.9999 19.9999H3.74999V17.5H24.9999V3.74999H27.4999Z" fill="#08215E"/>
</svg>
