<svg width="38" height="39" viewBox="0 0 38 39" fill="none" xmlns="http://www.w3.org/2000/svg">
<path fill-rule="evenodd" clip-rule="evenodd" d="M14.0806 37.998H9.52704C7.85027 38.0049 6.48618 36.6138 6.47905 34.8908C6.47867 34.7928 6.4828 34.6948 6.49106 34.5972C6.99893 29.7967 8.595 25.1857 11.1509 21.1345C13.4812 17.3652 16.5907 14.1697 20.2581 11.7747C24.2179 9.13815 28.726 7.49736 33.4178 6.98541C35.0874 6.83032 36.5634 8.09573 36.7143 9.81175C36.7221 9.90434 36.7263 9.99694 36.7267 10.0899V14.77C36.7413 16.3359 35.6249 17.6708 34.116 17.8895C32.6584 18.0875 31.2279 18.4536 29.851 18.9817C28.7414 19.4104 27.4911 19.1361 26.648 18.2796L24.7205 16.2985C20.9206 18.5192 17.7743 21.7529 15.6136 25.6587L17.5412 27.6398C18.3741 28.5059 18.641 29.7913 18.224 30.9314C17.7105 32.3465 17.3539 33.8171 17.1617 35.3148C16.9466 36.8834 15.6212 38.0373 14.0806 37.998Z" stroke="#908F9D" stroke-width="2" stroke-linecap="round" stroke-linejoin="round"/>
<path fill-rule="evenodd" clip-rule="evenodd" d="M20.2544 10.8951C20.2544 16.3595 15.9444 20.7892 10.6277 20.7892C5.31097 20.7892 1.00098 16.3595 1.00098 10.8951C1.00098 5.43069 5.31097 1.00098 10.6277 1.00098C15.9444 1.00098 20.2544 5.43069 20.2544 10.8951Z" fill="#F4F4F6"/>
<path fill-rule="evenodd" clip-rule="evenodd" d="M20.2544 10.8951C20.2544 16.3595 15.9444 20.7892 10.6277 20.7892C5.31097 20.7892 1.00098 16.3595 1.00098 10.8951C1.00098 5.43069 5.31097 1.00098 10.6277 1.00098C15.9444 1.00098 20.2544 5.43069 20.2544 10.8951Z" stroke="#908F9D" stroke-width="2" stroke-linecap="round" stroke-linejoin="round"/>
<path d="M8.49174 7.98698V13.8032" stroke="#908F9D" stroke-width="2" stroke-linecap="round" stroke-linejoin="round"/>
<path d="M12.7635 7.98698V13.8032" stroke="#908F9D" stroke-width="2" stroke-linecap="round" stroke-linejoin="round"/>
</svg>
