<svg width="17" height="13" viewBox="0 0 17 13" fill="none" xmlns="http://www.w3.org/2000/svg">
<path d="M16.6106 0.357807C16.4981 0.24443 16.3643 0.15444 16.2169 0.0930288C16.0695 0.0316174 15.9114 0 15.7517 0C15.5921 0 15.434 0.0316174 15.2865 0.0930288C15.1391 0.15444 15.0054 0.24443 14.8929 0.357807L5.88114 9.38167L2.09499 5.58342C1.97823 5.47064 1.84041 5.38195 1.68938 5.32243C1.53835 5.26291 1.37708 5.23373 1.21477 5.23653C1.05246 5.23934 0.892291 5.27409 0.743411 5.3388C0.594532 5.40351 0.459855 5.49691 0.347071 5.61366C0.234286 5.73042 0.145603 5.86824 0.0860846 6.01927C0.0265659 6.1703 -0.00262315 6.33157 0.000184975 6.49388C0.0029931 6.65619 0.0377432 6.81636 0.102451 6.96524C0.167158 7.11412 0.260556 7.2488 0.377312 7.36158L5.0223 12.0066C5.13475 12.1199 5.26854 12.2099 5.41594 12.2713C5.56335 12.3328 5.72145 12.3644 5.88114 12.3644C6.04083 12.3644 6.19893 12.3328 6.34634 12.2713C6.49374 12.2099 6.62753 12.1199 6.73998 12.0066L16.6106 2.13597C16.7334 2.02269 16.8314 1.88522 16.8984 1.7322C16.9654 1.57918 17 1.41394 17 1.24689C17 1.07983 16.9654 0.914593 16.8984 0.761575C16.8314 0.608557 16.7334 0.47108 16.6106 0.357807Z" fill="white"/>
</svg>
