<svg width="34" height="34" viewBox="0 0 34 34" fill="none" xmlns="http://www.w3.org/2000/svg">
<path d="M12.4039 14.0037H20.4187M12.4039 18.0111H18.415M16.4113 26.0259L13.4057 23.0203H10.4002C9.60304 23.0203 8.83857 22.7037 8.27492 22.14C7.71127 21.5764 7.39461 20.8119 7.39461 20.0148V12C7.39461 11.2029 7.71127 10.4384 8.27492 9.87474C8.83857 9.31109 9.60304 8.99444 10.4002 8.99444H22.4224C23.2195 8.99444 23.984 9.31109 24.5476 9.87474C25.1113 10.4384 25.4279 11.2029 25.4279 12V18.0111M20.4187 27.0277L25.4279 22.0185" stroke="#238009" stroke-width="2" stroke-linecap="round" stroke-linejoin="round"/>
<path d="M25.4283 26.5268V22.0184H20.92" stroke="#238009" stroke-width="2" stroke-linecap="round" stroke-linejoin="round"/>
<circle cx="17" cy="17" r="16.5" stroke="#238009"/>
</svg>
