<svg width="18" height="23" viewBox="0 0 18 23" fill="none" xmlns="http://www.w3.org/2000/svg">
<path d="M13.5886 0.759978H4.4236C3.45291 0.763382 2.52285 1.1875 1.83646 1.93974C1.15007 2.69198 0.763084 3.71127 0.759978 4.7751V19.4413C0.759978 21.3133 1.98511 22.1137 3.48119 21.1971L8.11079 18.3697C8.60556 18.0728 9.40661 18.0728 9.88959 18.3697L14.5192 21.1971C16.0153 22.1137 17.2404 21.3133 17.2404 19.4413V4.7751C17.2412 4.24867 17.1473 3.72723 16.9642 3.24056C16.7811 2.75388 16.5124 2.31149 16.1732 1.93865C15.8341 1.56581 15.4313 1.26983 14.9879 1.06759C14.5444 0.865351 14.0689 0.760825 13.5886 0.759978Z" fill="white" fill-opacity="0.56" stroke="#101010" stroke-opacity="0.56" stroke-width="1.5" stroke-linecap="round" stroke-linejoin="round"/>
</svg>
