<svg width="83" height="40" viewBox="0 0 83 40" fill="none" xmlns="http://www.w3.org/2000/svg">
<rect width="83" height="40" rx="8" fill="black" fill-opacity="0.41"/>
<path d="M32.65 20L25 12.35V16.45L23.5667 16.6667C16.3833 17.6834 11.5167 21.45 8.73333 27.2167C12.6 24.4834 17.4 23.1667 23.3333 23.1667H25V27.65M21.6667 24.8667C14.2167 25.2167 8.88333 27.9 5 33.3334C6.66667 25 11.6667 16.6667 23.3333 15V8.33337L35 20L23.3333 31.6667V24.8334C22.7833 24.8334 22.2333 24.85 21.6667 24.8667Z" fill="#FFF0F0"/>
<path d="M70.7898 8H60.2237C59.1046 8.00392 58.0324 8.49288 57.2411 9.36013C56.4497 10.2274 56.0036 11.4025 56 12.629V29.5373C56 31.6955 57.4124 32.6183 59.1372 31.5616L64.4746 28.3019C65.045 27.9596 65.9685 27.9596 66.5254 28.3019L71.8628 31.5616C73.5876 32.6183 75 31.6955 75 29.5373V12.629C75.0009 12.0221 74.8927 11.4209 74.6816 10.8598C74.4705 10.2987 74.1606 9.78871 73.7697 9.35887C73.3787 8.92903 72.9144 8.58779 72.4031 8.35464C71.8918 8.12148 71.3436 8.00098 70.7898 8Z" stroke="white" stroke-opacity="0.65" stroke-width="1.5" stroke-linecap="round" stroke-linejoin="round"/>
</svg>
