<svg width="7" height="16" viewBox="0 0 7 16" fill="none" xmlns="http://www.w3.org/2000/svg">
<g clip-path="url(#clip0_371_4830)">
<path d="M6.50023 8C6.50103 8.06558 6.4881 8.13059 6.46227 8.19087C6.43643 8.25115 6.39827 8.30535 6.35023 8.35L1.85023 12.85C1.65023 13.05 1.34023 13.05 1.14023 12.85C0.940234 12.65 0.940234 12.34 1.14023 12.14L5.29023 7.99L1.15023 3.85C0.950234 3.65 0.950234 3.34 1.15023 3.14C1.35023 2.94 1.66023 2.94 1.86023 3.14L6.36023 7.64C6.46023 7.74 6.51023 7.87 6.51023 7.99L6.50023 8Z" fill="black"/>
</g>
<defs>
<clipPath id="clip0_371_4830">
<rect width="16" height="7" fill="white" transform="matrix(0 -1 1 0 0 16)"/>
</clipPath>
</defs>
</svg>
