<svg width="17" height="13" viewBox="0 0 17 13" fill="none" xmlns="http://www.w3.org/2000/svg">
<path d="M5.24799 10.3113L1.72702 6.79032C1.5373 6.60059 1.27998 6.49401 1.01167 6.49401C0.743355 6.49401 0.486034 6.60059 0.29631 6.79032C0.106586 6.98004 0 7.23736 0 7.50567C0 7.63853 0.0261677 7.77008 0.0770087 7.89282C0.12785 8.01556 0.202368 8.12709 0.29631 8.22103L4.53771 12.4624C4.93344 12.8582 5.57269 12.8582 5.96842 12.4624L16.7038 1.72702C16.8936 1.5373 17.0001 1.27998 17.0001 1.01167C17.0001 0.743355 16.8936 0.486034 16.7038 0.29631C16.5141 0.106586 16.2568 0 15.9885 0C15.7202 0 15.4628 0.106586 15.2731 0.29631L5.24799 10.3113Z" fill="white"/>
</svg>
