<svg width="25" height="25" viewBox="0 0 25 25" fill="none" xmlns="http://www.w3.org/2000/svg">
<path d="M22.9173 22.9166L20.834 20.8333M11.9798 21.8749C13.2794 21.8749 14.5662 21.619 15.7668 21.1216C16.9674 20.6243 18.0583 19.8954 18.9772 18.9765C19.8961 18.0576 20.6251 16.9667 21.1224 15.7661C21.6197 14.5654 21.8757 13.2786 21.8757 11.9791C21.8757 10.6795 21.6197 9.39273 21.1224 8.19211C20.6251 6.9915 19.8961 5.90059 18.9772 4.98167C18.0583 4.06276 16.9674 3.33384 15.7668 2.83653C14.5662 2.33922 13.2794 2.08325 11.9798 2.08325C9.35528 2.08325 6.83824 3.12585 4.98241 4.98167C3.12658 6.8375 2.08398 9.35455 2.08398 11.9791C2.08398 14.6036 3.12658 17.1207 4.98241 18.9765C6.83824 20.8323 9.35528 21.8749 11.9798 21.8749Z" stroke="white" stroke-width="1.50063" stroke-linecap="round" stroke-linejoin="round"/>
</svg>
