<svg width="26" height="26" viewBox="0 0 26 26" fill="none" xmlns="http://www.w3.org/2000/svg">
<path d="M21.6654 11.9167C21.6654 9.61812 20.7523 7.41372 19.127 5.78841C17.5016 4.16309 15.2972 3.25 12.9987 3.25C10.7002 3.25 8.49575 4.16309 6.87044 5.78841C5.24512 7.41372 4.33203 9.61812 4.33203 11.9167" stroke="white" stroke-width="1.5" stroke-linecap="round" stroke-linejoin="round"/>
<path d="M21.666 19.5V20.0416C21.666 20.6163 21.4377 21.1674 21.0314 21.5737C20.6251 21.98 20.074 22.2083 19.4993 22.2083H15.7077M2.16602 16.7245V14.6921C2.16609 14.209 2.32765 13.7397 2.62503 13.3589C2.92241 12.9781 3.33853 12.7076 3.80727 12.5905L5.69227 12.1181C5.78805 12.0943 5.88801 12.0926 5.98456 12.1131C6.08111 12.1336 6.17172 12.1759 6.2495 12.2367C6.32729 12.2974 6.39022 12.3751 6.43351 12.4638C6.4768 12.5525 6.49931 12.6499 6.49935 12.7486V18.6669C6.49952 18.7658 6.47711 18.8635 6.43383 18.9524C6.39055 19.0414 6.32754 19.1193 6.2496 19.1802C6.17166 19.2411 6.08084 19.2834 5.98407 19.3039C5.8873 19.3244 5.78713 19.3225 5.69118 19.2985L3.80618 18.8272C3.33765 18.7099 2.92177 18.4393 2.6246 18.0585C2.32744 17.6777 2.16603 17.2086 2.16602 16.7256V16.7245ZM23.8327 16.7245V14.6921C23.8326 14.209 23.671 13.7397 23.3737 13.3589C23.0763 12.9781 22.6602 12.7076 22.1914 12.5905L20.3064 12.1181C20.2106 12.0943 20.1107 12.0926 20.0141 12.1131C19.9176 12.1336 19.827 12.1759 19.7492 12.2367C19.6714 12.2974 19.6085 12.3751 19.5652 12.4638C19.5219 12.5525 19.4994 12.6499 19.4993 12.7486V18.6669C19.4992 18.7657 19.5216 18.8632 19.5648 18.9521C19.6081 19.0409 19.671 19.1187 19.7488 19.1796C19.8266 19.2405 19.9172 19.2829 20.0139 19.3035C20.1105 19.3241 20.2106 19.3224 20.3064 19.2985L22.1914 18.8272C22.6602 18.7101 23.0763 18.4396 23.3737 18.0588C23.671 17.678 23.8326 17.2087 23.8327 16.7256V16.7245Z" stroke="white" stroke-width="1.5"/>
<path d="M14.625 23.8334H11.375C10.944 23.8334 10.5307 23.6622 10.226 23.3574C9.9212 23.0527 9.75 22.6394 9.75 22.2084C9.75 21.7774 9.9212 21.3641 10.226 21.0593C10.5307 20.7546 10.944 20.5834 11.375 20.5834H14.625C15.056 20.5834 15.4693 20.7546 15.774 21.0593C16.0788 21.3641 16.25 21.7774 16.25 22.2084C16.25 22.6394 16.0788 23.0527 15.774 23.3574C15.4693 23.6622 15.056 23.8334 14.625 23.8334Z" stroke="white" stroke-width="1.5"/>
</svg>
