<svg width="17" height="17" viewBox="0 0 17 17" fill="none" xmlns="http://www.w3.org/2000/svg">
<path fill-rule="evenodd" clip-rule="evenodd" d="M1.82143 5.46429V1.82143H5.46429V5.46429H1.82143ZM0 1.21429C0 0.892237 0.127933 0.583379 0.355656 0.355656C0.583379 0.127933 0.892237 0 1.21429 0H6.07143C6.39348 0 6.70234 0.127933 6.93006 0.355656C7.15778 0.583379 7.28571 0.892237 7.28571 1.21429V6.07143C7.28571 6.39348 7.15778 6.70234 6.93006 6.93006C6.70234 7.15778 6.39348 7.28571 6.07143 7.28571H1.21429C0.892237 7.28571 0.583379 7.15778 0.355656 6.93006C0.127933 6.70234 0 6.39348 0 6.07143V1.21429ZM9.71429 1.51786C9.71429 1.27632 9.81024 1.04468 9.98103 0.873885C10.1518 0.703093 10.3835 0.607143 10.625 0.607143H16.0893C16.3308 0.607143 16.5625 0.703093 16.7333 0.873885C16.904 1.04468 17 1.27632 17 1.51786C17 1.75939 16.904 1.99104 16.7333 2.16183C16.5625 2.33262 16.3308 2.42857 16.0893 2.42857H10.625C10.3835 2.42857 10.1518 2.33262 9.98103 2.16183C9.81024 1.99104 9.71429 1.75939 9.71429 1.51786ZM10.625 4.85714C10.3835 4.85714 10.1518 4.95309 9.98103 5.12388C9.81024 5.29468 9.71429 5.52632 9.71429 5.76786C9.71429 6.00939 9.81024 6.24104 9.98103 6.41183C10.1518 6.58262 10.3835 6.67857 10.625 6.67857H16.0893C16.3308 6.67857 16.5625 6.58262 16.7333 6.41183C16.904 6.24104 17 6.00939 17 5.76786C17 5.52632 16.904 5.29468 16.7333 5.12388C16.5625 4.95309 16.3308 4.85714 16.0893 4.85714H10.625ZM1.82143 11.5357V15.1786H5.46429V11.5357H1.82143ZM1.21429 9.71429C0.892237 9.71429 0.583379 9.84222 0.355656 10.0699C0.127933 10.2977 0 10.6065 0 10.9286V15.7857C0 16.1078 0.127933 16.4166 0.355656 16.6443C0.583379 16.8721 0.892237 17 1.21429 17H6.07143C6.39348 17 6.70234 16.8721 6.93006 16.6443C7.15778 16.4166 7.28571 16.1078 7.28571 15.7857V10.9286C7.28571 10.6065 7.15778 10.2977 6.93006 10.0699C6.70234 9.84222 6.39348 9.71429 6.07143 9.71429H1.21429ZM10.625 10.3214C10.3835 10.3214 10.1518 10.4174 9.98103 10.5882C9.81024 10.759 9.71429 10.9906 9.71429 11.2321C9.71429 11.4737 9.81024 11.7053 9.98103 11.8761C10.1518 12.0469 10.3835 12.1429 10.625 12.1429H16.0893C16.3308 12.1429 16.5625 12.0469 16.7333 11.8761C16.904 11.7053 17 11.4737 17 11.2321C17 10.9906 16.904 10.759 16.7333 10.5882C16.5625 10.4174 16.3308 10.3214 16.0893 10.3214H10.625ZM10.625 14.5714C10.3835 14.5714 10.1518 14.6674 9.98103 14.8382C9.81024 15.009 9.71429 15.2406 9.71429 15.4821C9.71429 15.7237 9.81024 15.9553 9.98103 16.1261C10.1518 16.2969 10.3835 16.3929 10.625 16.3929H16.0893C16.3308 16.3929 16.5625 16.2969 16.7333 16.1261C16.904 15.9553 17 15.7237 17 15.4821C17 15.2406 16.904 15.009 16.7333 14.8382C16.5625 14.6674 16.3308 14.5714 16.0893 14.5714H10.625Z" fill="black"/>
</svg>
