<svg width="25" height="25" viewBox="0 0 25 25" fill="none" xmlns="http://www.w3.org/2000/svg">
<path d="M1.02041 12.5C1.02041 10.9925 1.31734 9.49972 1.89424 8.10695C2.47114 6.71418 3.31672 5.44868 4.3827 4.3827C5.44868 3.31672 6.71418 2.47114 8.10695 1.89424C9.49972 1.31734 10.9925 1.02041 12.5 1.02041C14.0075 1.02041 15.5003 1.31734 16.893 1.89424C18.2858 2.47114 19.5513 3.31672 20.6173 4.3827C21.6833 5.44868 22.5289 6.71418 23.1058 8.10695C23.6827 9.49972 23.9796 10.9925 23.9796 12.5C23.9796 15.5446 22.7701 18.4645 20.6173 20.6173C18.4645 22.7701 15.5446 23.9796 12.5 23.9796C9.45542 23.9796 6.53554 22.7701 4.3827 20.6173C2.22986 18.4645 1.02041 15.5446 1.02041 12.5Z" stroke="black" stroke-width="2" stroke-linecap="round" stroke-linejoin="round"/>
</svg>
