<svg width="17" height="20" viewBox="0 0 17 20" fill="none" xmlns="http://www.w3.org/2000/svg">
<path d="M12.1603 0.751937H4.00997C3.14674 0.754961 2.31965 1.13177 1.70924 1.80012C1.09884 2.46846 0.754699 3.37406 0.751937 4.31923V17.3496C0.751937 19.0128 1.84144 19.724 3.17189 18.9096L7.28895 16.3976C7.72895 16.1338 8.44131 16.1338 8.87083 16.3976L12.9879 18.9096C14.3183 19.724 15.4078 19.0128 15.4078 17.3496V4.31923C15.4085 3.85152 15.3251 3.38824 15.1622 2.95585C14.9994 2.52345 14.7604 2.1304 14.4588 1.79915C14.1573 1.46789 13.7991 1.20492 13.4047 1.02524C13.0103 0.845557 12.5875 0.752689 12.1603 0.751937Z" stroke="#08215E" stroke-width="1.5" stroke-linecap="round" stroke-linejoin="round"/>
</svg>
