<svg width="86" height="33" viewBox="0 0 86 33" fill="none" xmlns="http://www.w3.org/2000/svg">
<path d="M16.6247 5.14908C12.0468 5.14908 8.32646 8.64398 8.32646 12.9444V16.6991C8.32646 17.4917 7.96687 18.6999 7.53812 19.3755L5.94763 21.8571C4.96567 23.3901 5.64336 25.0921 7.44131 25.6638C13.4022 27.5346 19.8334 27.5346 25.7943 25.6638C27.4677 25.1441 28.2008 23.2862 27.2879 21.8571L25.6975 19.3755C25.2825 18.6999 24.9229 17.4917 24.9229 16.6991V12.9444C24.9229 8.65697 21.1887 5.14908 16.6247 5.14908Z" stroke="white" stroke-width="1.5" stroke-miterlimit="10" stroke-linecap="round"/>
<path d="M19.1834 5.52584C17.5109 5.07837 15.7387 5.07837 14.0662 5.52584C14.4672 4.56441 15.463 3.88882 16.6248 3.88882C17.7865 3.88882 18.7823 4.56441 19.1834 5.52584Z" stroke="white" stroke-width="1.5" stroke-miterlimit="10" stroke-linecap="round" stroke-linejoin="round"/>
<path d="M20.7731 26.1314C20.7731 28.2751 18.906 30.0291 16.624 30.0291C15.4899 30.0291 14.4388 29.5873 13.6919 28.8858C12.9149 28.1547 12.4774 27.1645 12.4749 26.1314" stroke="white" stroke-width="1.5" stroke-miterlimit="10"/>
<path d="M83.4854 28.5828L80.9708 25.9843M70.2836 27.2835C71.8522 27.2835 73.4054 26.9643 74.8546 26.344C76.3037 25.7237 77.6205 24.8146 78.7296 23.6685C79.8388 22.5224 80.7186 21.1617 81.3189 19.6643C81.9191 18.1668 82.2281 16.5618 82.2281 14.941C82.2281 13.3201 81.9191 11.7151 81.3189 10.2176C80.7186 8.72017 79.8388 7.35954 78.7296 6.21342C77.6205 5.0673 76.3037 4.15816 74.8546 3.53788C73.4054 2.91761 71.8522 2.59836 70.2836 2.59836C67.1158 2.59836 64.0776 3.89874 61.8376 6.21342C59.5976 8.52811 58.3392 11.6675 58.3392 14.941C58.3392 18.2144 59.5976 21.3538 61.8376 23.6685C64.0776 25.9832 67.1158 27.2835 70.2836 27.2835Z" stroke="white" stroke-width="1.5" stroke-linecap="round" stroke-linejoin="round"/>
</svg>
